<?xml version="1.0" encoding="UTF-8" standalone="no"?>
<svg width="32px" height="32px" viewBox="0 0 32 32" version="1.1" xmlns="http://www.w3.org/2000/svg" xmlns:xlink="http://www.w3.org/1999/xlink">
    <!-- Generator: Sketch 40 (33762) - http://www.bohemiancoding.com/sketch -->
    <title>商家公告</title>
    <desc>Created with Sketch.</desc>
    <defs></defs>
    <g id="Page-1" stroke="none" stroke-width="1" fill="none" fill-rule="evenodd">
        <g id="点餐页1" transform="translate(-29.000000, -376.000000)">
            <g id="商家公告" transform="translate(29.000000, 376.000000)">
                <rect id="Rectangle-7-Copy" fill="#FFCA00" x="0" y="0" width="32" height="32" rx="4"></rect>
                <path d="M17.2437814,25.7004102 C17.2437814,28.0824774 15.4296308,26.8526779 15.4296308,26.8526779 L7.57389662,20.1965471 L6.36063161,20.1965471 C5.60887155,20.1965471 5,19.5720075 5,18.8015741 L5,13.2229977 C5,12.4524141 5.60887155,11.8282127 6.36063161,11.8282127 L7.81179537,11.8282127 L15.4296308,5.31989239 C15.4296308,5.31989239 17.2439306,4.08009601 17.2439306,6.48200654 L17.2439306,25.7005605 L17.2437814,25.7005605 L17.2437814,25.7004102 L17.2437814,25.7004102 Z M21.3247806,19.7313181 C23.5924129,17.8718678 23.4410907,14.3462144 21.3247806,12.7579191 C20.493721,12.2545067 19.9645968,13.9202963 19.9645968,13.9202963 C19.9645968,13.9202963 22.0806083,16.5934745 19.9645968,18.5692039 C19.5486938,19.1116266 20.342436,20.2351439 21.3247806,19.7313181 L21.3247806,19.7313181 L21.3247806,19.7313181 L21.3247806,19.7313181 Z M22.4585967,8.80649794 C22.1562508,8.53507992 20.6826592,9.54258125 21.5517453,10.4333901 C26.0484983,14.2689831 26.1238796,17.8718678 21.5517453,21.8234392 C20.8712989,22.4819906 21.778113,23.7220877 22.4585967,23.4503314 C28.6933727,20.544595 28.4293891,11.518273 22.4585967,8.80649794 L22.4585967,8.80649794 L22.4585967,8.80649794 L22.4585967,8.80649794 Z" id="Shape" fill="#FFFFFF"></path>
            </g>
        </g>
    </g>
</svg>