<?xml version="1.0" standalone="no"?><!DOCTYPE svg PUBLIC "-//W3C//DTD SVG 1.1//EN" "http://www.w3.org/Graphics/SVG/1.1/DTD/svg11.dtd"><svg t="1562123079834" class="icon" viewBox="0 0 1024 1024" version="1.1" xmlns="http://www.w3.org/2000/svg" p-id="6211" xmlns:xlink="http://www.w3.org/1999/xlink" width="200" height="200"><defs><style type="text/css"></style></defs><path d="M250.917717 620.373333a31.675733 31.675733 0 0 1 43.349334-11.656533l21.333333 12.356267c7.7312 4.488533 16.469333-4.078933 12.1344-11.895467l-83.592533-151.057067a70.5024 70.5024 0 0 0-62.8224-36.369066l-172.612267 2.6624c-8.942933 0.136533-12.014933 11.963733-4.283733 16.452266l21.213866 12.288a31.675733 31.675733 0 0 1 11.554134 43.246934l-1.160534 1.9968a70.5536 70.5536 0 0 0 0 70.536533l113.834667 197.154133c7.799467 13.499733 27.8528 10.871467 32.170667-4.113066a389.239467 389.239467 0 0 1 40.840533-92.706134l28.040533-48.896zM544.737451 669.2864H286.877184c-7.082667 8.8064-70.980267 91.5456-64.3584 198.161067 1.348267 21.623467 16.1792 41.0112 37.154133 46.4896 5.666133 1.4848 11.5712 2.2528 17.595734 2.2528h267.485866a35.2768 35.2768 0 0 0 35.2768-35.2768V704.5632a35.293867 35.293867 0 0 0-35.293866-35.2768zM163.689984 347.869867l151.517867 87.483733a35.259733 35.259733 0 0 0 48.1792-12.9024l130.082133-225.314133c-7.1168-16.042667-49.339733-103.6288-140.373333-146.807467-15.786667-7.492267-34.594133-7.5776-49.476267 1.570133a70.314667 70.314667 0 0 0-24.064 24.712534L150.770517 299.690667a35.2768 35.2768 0 0 0 12.919467 48.1792zM524.718251 143.018667l33.314133 57.053866a31.6928 31.6928 0 0 1-11.502933 43.400534l-18.926934 10.939733c-7.748267 4.471467-4.676267 16.298667 4.266667 16.452267l172.612267 2.798933a70.536533 70.536533 0 0 0 62.839466-36.334933l83.694934-150.9888c4.334933-7.816533-4.386133-16.384-12.1344-11.912534l-23.825067 13.7728a31.675733 31.675733 0 0 1-43.281067-11.588266 70.536533 70.536533 0 0 0-61.098666-35.2768H482.768384c-15.581867 0-23.3472 18.688-12.544 29.9008a392.874667 392.874667 0 0 1 54.493867 71.7824zM1023.832917 526.08a70.058667 70.058667 0 0 0-9.130666-28.7744l-129.757867-224.733867a35.2768 35.2768 0 0 0-48.1792-12.9024l-152.4736 88.029867a35.2768 35.2768 0 0 0-12.919467 48.1792l125.525334 217.3952c10.052267 1.706667 112.1792 17.169067 201.796266-39.099733 16.418133-10.308267 26.897067-28.7744 25.1392-48.093867zM927.320917 659.797333c-37.9904 8.686933-72.704 10.103467-98.2016 9.3184l0.085334 0.1536h-0.341334l0.017067 0.017067h-58.743467a31.675733 31.675733 0 0 1-31.675733-31.675733v-23.381334c0-8.942933-11.776-12.202667-16.384-4.539733l-88.814933 148.036267a70.570667 70.570667 0 0 0 0 72.584533l88.814933 148.036267c4.608 7.662933 16.384 4.4032 16.384-4.539734v-25.9584c0-17.493333 14.1824-31.675733 31.675733-31.675733h2.696534a70.5536 70.5536 0 0 0 61.098666-35.2768l112.708267-195.2256c7.748267-13.346133-4.2496-29.320533-19.319467-25.873067z" fill="#ffffff" p-id="6212"></path></svg>