<?xml version="1.0" standalone="no"?>
<!DOCTYPE svg PUBLIC "-//W3C//DTD SVG 1.1//EN" "http://www.w3.org/Graphics/SVG/1.1/DTD/svg11.dtd" >
<!--
2013-9-30: Created.
-->
<svg>
<metadata>
Created by iconfont
</metadata>
<defs>

<font id="wi" horiz-adv-x="1024" >
  <font-face
    font-family="wi"
    font-weight="500"
    font-stretch="normal"
    units-per-em="1024"
    ascent="896"
    descent="-128"
  />
    <missing-glyph />
    
    <glyph glyph-name="x" unicode="x" horiz-adv-x="1001"
d="M281 543q-27 -1 -53 -1h-83q-18 0 -36.5 -6t-32.5 -18.5t-23 -32t-9 -45.5v-76h912v41q0 16 -0.5 30t-0.5 18q0 13 -5 29t-17 29.5t-31.5 22.5t-49.5 9h-133v-97h-438v97zM955 310v-52q0 -23 0.5 -52t0.5 -58t-10.5 -47.5t-26 -30t-33 -16t-31.5 -4.5q-14 -1 -29.5 -0.5
t-29.5 0.5h-32l-45 128h-439l-44 -128h-29h-34q-20 0 -45 1q-25 0 -41 9.5t-25.5 23t-13.5 29.5t-4 30v167h911zM163 247q-12 0 -21 -8.5t-9 -21.5t9 -21.5t21 -8.5q13 0 22 8.5t9 21.5t-9 21.5t-22 8.5zM316 123q-8 -26 -14 -48q-5 -19 -10.5 -37t-7.5 -25t-3 -15t1 -14.5
t9.5 -10.5t21.5 -4h37h67h81h80h64h36q23 0 34 12t2 38q-5 13 -9.5 30.5t-9.5 34.5q-5 19 -11 39h-368zM336 498v228q0 11 2.5 23t10 21.5t20.5 15.5t34 6h188q31 0 51.5 -14.5t20.5 -52.5v-227h-327z" />
    

    
    <glyph glyph-name="down-sign-s" unicode="&#58881;" d="M930.112 383.39200000000005c0-232.736-189.344-422.112-422.08-422.112S85.92 150.62400000000002 85.92 383.39200000000005c0 232.736 189.344 422.112 422.112 422.112s422.08-189.344 422.08-422.112z m-587.264 29.216a19.52 19.52 0 0 1 5.76-13.888l147.296-146.848c1.536-1.408 3.392-2.56 5.664-3.52l0.256-0.096 0.736-0.384a19.584 19.584 0 0 1 20.544 4.64l145.824 147.456a19.584 19.584 0 1 1-27.872 27.552l-132.032-133.472-132.768 132.384a19.296 19.296 0 0 1-13.792 5.728h-0.064a19.424 19.424 0 0 1-13.824-5.76 19.264 19.264 0 0 1-5.728-13.792z"  horiz-adv-x="1024" />

    
    <glyph glyph-name="zip" unicode="&#58882;" d="M859.264 799.872H167.168c-38.272 0-69.344-31.04-69.344-69.344v-692.064c0-38.304 31.04-69.344 69.344-69.344h692.096c38.272 0 69.344 31.04 69.344 69.344V730.528c0 38.304-31.04 69.344-69.344 69.344z m-244.448-400.544v-164.576c0-11.008-8.96-20-19.968-20h-20.256v92.992c0 17.952-17.92 32.48-40.032 32.48h-42.752c-22.112 0-40.032-14.528-40.032-32.48v-92.992h-20.224a20 20 0 0 0-19.968 20v164.576c0 4.736 1.664 9.088 4.416 12.512h194.432a19.904 19.904 0 0 0 4.416-12.512z m-130.56-201.664a15.264 15.264 0 0 1 0 4.864v103.2a13.44 13.44 0 0 0 7.552 2.016h42.752c3.68 0 6.304-1.152 7.552-2.016v-181.6a13.44 13.44 0 0 0-7.552-2.016h-42.752a13.376 13.376 0 0 0-7.552 2.016v73.504z m-46.112 343.072h75.072V585.504h-75.072V630.272h75.072V675.008h75.072v-44.736h-75.072v-44.768h75.072v-44.768h-75.072v-44.768h75.072v-42.912h-75.072v42.912h-75.072v44.768z m150.112 179.008h-75.072v-44.768h-75.072V719.744h75.072V758.624h75.072v-38.88z m300.704-681.28a29.76 29.76 0 0 0-29.728-29.728H167.136a29.76 29.76 0 0 0-29.696 29.728V730.528a29.76 29.76 0 0 0 29.696 29.728h229.728v-325.824c-9.056-8.96-14.688-21.376-14.688-35.104v-164.576c0-27.232 22.144-49.344 49.344-49.344h20.224v-63.264c0-17.952 17.92-32.48 40.032-32.48h42.752c22.112 0 40.032 14.56 40.032 32.48v63.264h20.256c27.2 0 49.344 22.144 49.344 49.344v164.576c0 13.728-5.632 26.144-14.688 35.104V760.256h229.728a29.76 29.76 0 0 0 29.728-29.728v-692.064z"  horiz-adv-x="1024" />

    
    <glyph glyph-name="warning-cricle" unicode="&#58883;" d="M932.992 388.832c0-232.256-188.96-421.216-421.216-421.216S90.56 156.576 90.56 388.832 279.52 810.048 511.776 810.048s421.216-188.96 421.216-421.216z m-53.408 0c0 202.816-164.992 367.808-367.808 367.808S143.968 591.648 143.968 388.832s164.992-367.808 367.808-367.808 367.808 164.992 367.808 367.808z m-367.808-156.224c-23.136 0-41.952-18.816-41.952-41.952s18.816-41.952 41.952-41.952 41.952 18.816 41.952 41.952-18.816 41.952-41.952 41.952z m0 396.384a26.752 26.752 0 0 1-26.72-26.72v-274.432a26.752 26.752 0 0 1 53.44 0V602.272a26.752 26.752 0 0 1-26.72 26.72z"  horiz-adv-x="1024" />

    
    <glyph glyph-name="wallet" unicode="&#58884;" d="M180.864-32.832h603.008a86.752 86.752 0 0 1 86.656 86.656v93.28c0 14.496-11.808 26.304-26.304 26.304s-26.304-11.808-26.304-26.304v-93.28c0-18.752-15.264-34.048-34.048-34.048H180.864a34.08 34.08 0 0 0-34.048 34.048V599.264c0 18.784 15.264 34.048 34.048 34.048h605.792c18.784 0 34.048-15.264 34.048-34.048v-88.672c0-14.496 11.808-26.304 26.304-26.304s26.304 11.808 26.304 26.304V599.264a86.752 86.752 0 0 1-86.656 86.656H180.864a86.752 86.752 0 0 1-86.656-86.656v-545.44a86.752 86.752 0 0 1 86.656-86.656z m392.288 245.536a56.544 56.544 0 0 0-56.48 56.48v120.704c0 31.136 25.344 56.48 56.48 56.48h301.728c31.136 0 56.48-25.344 56.48-56.48v-120.704c0-31.136-25.344-56.48-56.48-56.48h-301.728z m-3.84 52.64h309.504l-0.064 128.416h-309.44v-128.416z"  horiz-adv-x="1024" />

    
    <glyph glyph-name="warning-sign" unicode="&#58885;" d="M511.84 799.808c-228.864 0-414.4-185.536-414.4-414.4s185.536-414.4 414.4-414.4 414.4 185.536 414.4 414.4c0 228.864-185.536 414.4-414.4 414.4z m50.912-584.672c-3.968-36.8-41.088-53.248-71.488-40.352-16.128 6.848-24.736 20.512-28.192 37.408-0.672 3.296-0.672 6.752-0.96 10.112 0.32 12.224 2.4 23.936 10.464 33.6 10.88 13.056 25.44 18.304 42.016 17.472 32.736-1.664 51.648-26.208 48.16-58.24z m4.064 325.568c-2.816-18.304-8.992-37.664-12.736-56.544a1633.216 1633.216 0 0 1-12.864-71.168c-3.456-22.688-5.696-46.4-8.352-69.184-1.152-9.696-2.048-20.576-3.072-30.848h-33.376c-0.192 0-0.384 3.008-0.48 3.616-3.776 28.704-7.04 59.072-11.488 87.648a1865.792 1865.792 0 0 1-14.848 80.768c-3.328 16.512-8.192 32.768-12.096 49.184-1.216 5.152-2.784 16.48-2.24 21.44 2.336 21.184 15.008 42.016 41.664 47.776 5.888 1.28 22.176 1.184 22.912 1.12 21.056-1.76 38.656-13.6 45.536-33.568 4.64-13.376 2.112-26.048 1.472-30.272z"  horiz-adv-x="1024" />

    
    <glyph glyph-name="XML" unicode="&#58886;" d="M831.744 502.912h-19.968V599.2c0 0.608-0.096 1.216-0.16 1.824a16 16 0 0 1-3.872 10.56l-160.256 183.04-0.128 0.128a16.352 16.352 0 0 1-7.552 4.704l-0.864 0.288a16.416 16.416 0 0 1-3.744 0.448H241.376a32.64 32.64 0 0 1-32.608-32.608v-264.704H188.8a46.56 46.56 0 0 1-46.56-46.56v-242.24c0-25.728 20.864-46.592 46.592-46.592h19.968v-165.824a32.64 32.64 0 0 1 32.608-32.608H779.2a32.64 32.64 0 0 1 32.608 32.608v165.824h19.968c25.728 0 46.592 20.864 46.592 46.592v242.24c0 25.728-20.864 46.592-46.592 46.592zM241.408 767.616h377.536v-166.752a16.32 16.32 0 0 1 16.288-16.288h143.968v-81.632H241.408V767.648z m410.912-532.544h-48.384l-3.264 83.776a2493.728 2493.728 0 0 0-1.952 89.952h-0.96a1179.36 1179.36 0 0 0-24.352-84.736l-26.624-85.408h-38.656l-23.392 84.736a1010.624 1010.624 0 0 0-19.808 85.408h-0.64c-1.28-29.568-2.272-63.328-3.904-90.592l-3.872-83.136h-45.792l13.984 218.848h65.888l21.44-73.056c6.816-25.312 13.632-52.576 18.496-78.24h0.992c6.176 25.312 13.632 54.208 20.8 78.56l23.392 72.736h64.608l12-218.848z m-451.968 0l63.328 110.752-61.024 108.128h56.832l19.136-39.936c5.888-11.968 11.392-24.096 16.576-36.352h0.64c5.184 13.952 9.408 23.68 14.912 36.352l18.528 39.936h56.48l-61.696-106.848 64.96-112.032h-57.152l-19.808 39.616c-8.128 15.264-13.312 26.624-19.488 39.296h-0.64c-4.544-12.672-10.08-24.032-16.896-39.296l-18.176-39.616H200.352z m578.848-224.576H241.408v156.992H779.2v-156.992z m47.872 224.576h-136.736v218.848h49.696v-177.312h87.04v-41.568z"  horiz-adv-x="1024" />

    
    <glyph glyph-name="transform" unicode="&#58887;" d="M967.808 493.696V818.752c0 28.736-23.232 52.032-52.032 52.032H551.744c-28.736 0-52.032-23.296-52.032-52.032v-325.056c0-28.736 23.232-52.032 52.032-52.032h364.032c28.8 0.064 52.032 23.36 52.032 52.032z m-104 78.016a26.016 26.016 0 0 0-25.984-25.984H629.76a25.952 25.952 0 0 0-25.984 25.984V740.8c0 14.336 11.648 25.984 25.984 25.984h208.064c14.4 0 25.984-11.648 25.984-25.984v-169.088z m-417.152-245.44H82.496c-28.672 0-52.032-23.296-52.032-52.032v-324.992c0-28.736 23.296-52.032 52.032-52.032h364.096c28.736 0 52.032 23.232 52.032 52.032V274.24c0 28.736-23.232 52.032-51.968 52.032z m-52.032-299.008c0-14.4-11.712-25.984-25.984-25.984H160.512a26.016 26.016 0 0 0-25.984 25.984v169.024c0 14.4 11.712 25.984 25.984 25.984h208.128c14.336 0 25.984-11.648 25.984-25.984v-169.024zM143.872 420.672L1.856 586.624h93.696v1.344c0 155.776 121.216 282.048 270.912 282.048h38.656v-114.112h-38.656c-90.112 0-163.136-75.648-163.84-169.216h83.328l-142.08-166.016zM1022.08 180.48000000000002h-93.696v-1.28c0-155.712-121.28-281.984-270.912-281.984h-38.656v114.112h38.656c90.112 0 163.136 75.648 163.84 169.152h-83.328l142.016 166.016 142.08-166.016z"  horiz-adv-x="1024" />

    
    <glyph glyph-name="coupon" unicode="&#58888;" d="M401.76 800.288H250.208c-34.272 0-62.304-27.456-62.304-60.992v-709.984c0-33.536 28.064-60.992 62.336-60.992h151.52c10.336 50.016 55.52 87.648 109.664 87.648 54.176 0 99.296-37.632 109.696-87.616h151.52c34.272 0 62.336 27.456 62.336 60.992V739.296c0 33.536-28.064 60.992-62.336 60.992H621.12c-10.4-49.952-55.52-87.616-109.696-87.616-54.112 0-99.328 37.632-109.664 87.616z m319.008-231.072c12 0 21.728-10.336 21.728-23.072 0-12.8-9.728-23.104-21.728-23.104H302.112c-12 0-21.728 10.336-21.728 23.104 0 12.8 9.76 23.072 21.728 23.072h418.656z"  horiz-adv-x="1024" />

    
    <glyph glyph-name="upload" unicode="&#58889;" d="M123.872-32.576a26.784 26.784 0 0 0-26.752 26.752v161.824a26.784 26.784 0 0 0 53.504 0v-135.072H873.92v135.072a26.784 26.784 0 0 0 53.504 0v-161.824a26.784 26.784 0 0 0-26.752-26.752H123.872z m387.52 129.472a26.784 26.784 0 0 0-26.752 26.752V707.392L266.464 489.28a26.784 26.784 0 0 0-45.664 18.976c0 7.136 2.784 13.856 7.872 18.88l262.304 262.08a26.72 26.72 0 0 0 9.28 5.952 26.976 26.976 0 0 0 11.168 2.528l0.224-0.096c0.576-0.16 1.472-0.416 2.528-0.512l0.512-0.032c7.328 0 14.176-2.784 19.2-7.872l262.08-262.272a26.56 26.56 0 0 0-0.096-37.824 26.56 26.56 0 0 0-37.792 0.128l-219.904 219.712v-585.312a26.784 26.784 0 0 0-26.752-26.752z"  horiz-adv-x="1024" />

    
    <glyph glyph-name="local" unicode="&#58890;" d="M512 896C229.28 896 0 666.784 0 384c0-282.816 229.28-512 512-512 282.784 0 512 229.216 512 512S794.784 896 512 896z m0.352-876.896c-179.36 0-323.84 54.016-323.84 120.576 0 45.408 66.88 84.8 165.984 105.408-57.696 60.32-110.432 141.216-110.432 235.968 0 147.648 120.672 268.288 268.288 268.288a268 268 0 0 0 268.352-268.288c0-94.528-53.312-175.36-111.424-235.776 99.584-20.48 166.912-60.096 166.912-105.632 0-66.56-144.384-120.576-323.84-120.576z m119.04 466.72a118.944 118.944 0 0 1-119.04 119.104 118.88 118.88 0 0 1-119.04-119.104c0-65.088 52.384-119.04 119.04-119.04s120.64 53.952 119.04 119.04z m-119.04-358.848a28.736 28.736 0 0 0-11.104 3.232c-4.704 1.984-51.392 28.608-103.68 73.888-90.368-11.456-153.504-35.776-153.504-64.352 0-39.584 120.672-71.424 268.288-71.424 147.648 0 268.352 31.808 268.352 71.424 0 28.832-63.68 53.184-154.688 64.512a710.4 710.4 0 0 0-102.496-73.984 29.408 29.408 0 0 0-11.168-3.264z"  horiz-adv-x="1024" />

    
    <glyph glyph-name="main-apply" unicode="&#58891;" d="M508.736 830.848c-246.56 0-446.4-199.872-446.4-446.4s199.872-446.4 446.4-446.4c246.56 0 446.4 199.872 446.4 446.4s-199.872 446.4-446.4 446.4z m-263.232-262.4c0 36.352 29.472 65.824 65.824 65.824h99.168c36.352 0 65.824-29.472 65.824-65.824v-99.168a65.792 65.792 0 0 0-65.824-65.824H311.328a65.792 65.792 0 0 0-65.824 65.824v99.168z m230.848-388.576a65.792 65.792 0 0 0-65.824-65.824H311.36a65.792 65.792 0 0 0-65.824 65.824V279.03999999999996c0 36.384 29.472 65.824 65.824 65.824h99.168c36.384 0 65.824-29.472 65.824-65.824v-99.168z m289.408 0a65.792 65.792 0 0 0-65.824-65.824h-99.168a65.792 65.792 0 0 0-65.824 65.824V279.03999999999996c0 36.384 29.472 65.824 65.824 65.824h99.168c36.352 0 65.824-29.472 65.824-65.824v-99.168z m1.248 292.448l-70.112-70.112a65.856 65.856 0 0 0-93.12 0l-70.112 70.112a65.856 65.856 0 0 0 0 93.12l70.112 70.112a65.856 65.856 0 0 0 93.12 0l70.112-70.112a65.856 65.856 0 0 0 0-93.12z"  horiz-adv-x="1024" />

    
    <glyph glyph-name="wx-circle" unicode="&#58892;" d="M590.040613 382.50105900000005c-13.713716 0-27.491217-13.777501-27.491217-27.491217 0-13.873178 13.841286-27.491217 27.491217-27.491217 20.761928 0 34.443752 13.618039 34.443752 27.491217-0.063785 13.713716-13.681824 27.491217-34.443752 27.491217z m-89.394294 130.694905c20.730036 0 34.379968 13.841286 34.379967 34.379967 0 20.666251-13.713716 34.284291-34.379967 34.284291-20.602467 0-41.268718-13.618039-41.268718-34.284291 0-20.602467 20.666251-34.379968 41.268718-34.379967zM308.271583 581.860222c-20.602467 0-41.42818-13.618039-41.428179-34.284291 0-20.602467 20.825713-34.379968 41.428179-34.379967 20.570574 0 34.284291 13.841286 34.284291 34.379967 0 20.666251-13.713716 34.284291-34.284291 34.284291z m432.906939-199.359163c-13.618039 0-27.299863-13.777501-27.299862-27.491217 0-13.873178 13.713716-27.491217 27.299862-27.491217 20.570574 0 34.379968 13.618039 34.379968 27.491217 0 13.713716-13.777501 27.491217-34.379968 27.491217zM510.277812 892.587517c-281.76903 0-510.277812-228.444998-510.277812-510.277812s228.444998-510.277812 510.277812-510.277813 510.277812 228.444998 510.277813 510.277813-228.444998 510.277812-510.277813 510.277812z m-112.707611-661.415722c-34.284291 0-61.903077 6.984428-96.283045 13.841286l-96.091691-48.157469 27.491217 82.665006c-68.82372 48.061791-110.028653 110.060546-110.028653 185.549769 0 130.790582 123.806154 233.771023 274.880279 233.771023 135.159836 0 253.544288-82.250405 277.335991-193.044475a242.700885 242.700885 0 0 1-26.470661 1.626511c-130.567335 0-233.707238-97.463062-233.707238-217.53781 0-19.996512 3.125452-39.227607 8.515261-57.597608-8.515261-0.66974-17.094307-1.08434-25.673353-1.08434z m405.415722-96.314937l20.666251-68.728043-75.425439 41.332503c-27.459325-6.88875-55.110004-13.841286-82.473652-13.841286-130.790582 0-233.802915 89.362402-233.802915 199.45484 0 109.869191 103.012333 199.45484 233.802915 199.45484 123.551015 0 233.452099-89.617541 233.4521-199.45484 0.063785-61.934969-41.013579-116.853619-96.251153-158.249906z"  horiz-adv-x="1024" />

    
    <glyph glyph-name="star" unicode="&#58893;" d="M511.392 781.824c-8.864 0-17.76-6.816-24.48-20.448l-87.776-177.856c-13.472-27.264-49.12-53.184-79.232-57.568l-196.288-28.512c-30.112-4.384-36.928-25.312-15.136-46.56l142.048-138.464c21.792-21.248 35.392-63.136 30.272-93.12l-33.536-195.488c-3.744-21.728 4.608-34.528 19.744-34.528 5.728 0 12.48 1.856 19.872 5.728l175.552 92.288c13.472 7.072 31.2 10.624 48.96 10.624s35.488-3.552 48.96-10.624l175.552-92.288c7.424-3.904 14.144-5.728 19.872-5.728 15.136 0 23.456 12.768 19.744 34.528l-33.536 195.488c-5.152 29.984 8.48 71.904 30.272 93.12l142.048 138.432c21.792 21.248 14.976 42.176-15.136 46.56l-196.288 28.512c-30.112 4.384-65.76 30.272-79.232 57.568l-87.776 177.856c-6.72 13.632-15.616 20.448-24.48 20.448z"  horiz-adv-x="1024" />

    
    <glyph glyph-name="down" unicode="&#58894;" d="M513.344-32.76800000000003L247.776 355.36h180.448V797.984h163.424v-442.624h180.448l-258.752-388.128z"  horiz-adv-x="1024" />

    
    <glyph glyph-name="bell" unicode="&#58895;" d="M585.696 711.264c0-3.936-0.32-7.776-0.992-11.52 106.624-33.728 184.288-137.632 184.288-260.704v-97.728s0-139.584 36.672-139.584c20.256 0 36.64-15.584 36.64-35.136 0-19.424-16.32-35.136-36.64-35.136H219.072c-20.256 0-36.64 15.584-36.64 35.136 0 19.424 16.32 35.136 37.6 35.136 35.712 1.216 35.712 140.576 35.712 140.576v96.768c0 122.912 83.072 226.784 184.32 260.608a66.176 66.176 0 0 0-0.992 11.616c0 38.816 32.896 70.272 73.312 70.272 40.48 0 73.312-31.552 73.312-70.272z m36.672-614.912h-219.968c0.096-58.464 49.312-105.472 109.984-105.472 61.088 0 109.888 47.2 109.984 105.472z"  horiz-adv-x="1024" />

    
    <glyph glyph-name="up" unicode="&#58896;" d="M513.344 800.768L247.776 412.64h180.448v-442.624h163.424V412.64h180.448L513.344 800.768z"  horiz-adv-x="1024" />

    
    <glyph glyph-name="shopping-cart" unicode="&#58897;" d="M443.776 123.87199999999996c-7.008 7.008-15.264 12.48-24.8 16.416s-19.616 5.888-30.24 5.888c-11.2 0-21.568-1.984-31.104-5.888s-17.792-9.408-24.8-16.416c-7.008-7.008-12.64-15.296-16.832-24.832s-6.304-19.616-6.304-30.272c0-10.656 2.112-20.736 6.304-30.272s9.824-17.824 16.832-24.864c6.976-6.976 15.264-12.608 24.8-16.832s19.904-6.304 31.104-6.304c10.624 0 20.736 2.08 30.24 6.304s17.792 9.824 24.8 16.832c7.008 7.04 12.608 15.296 16.8 24.864s6.304 19.616 6.304 30.272c0 10.656-2.112 20.768-6.304 30.272s-9.792 17.824-16.8 24.832z m260.96 637.504c-12.864 12.896-27.04 19.2-42.432 18.944s-29.568-6.88-42.464-19.776l-110.912-111.072h307.584l-111.776 111.936z m229.888-160.768c-3.648 6.176-9.824 11.36-18.496 15.584s-20.864 6.304-36.576 6.304v-0.032H304.704a1649.28 1649.28 0 0 1-5.056 31.968l-3.36 24.832a191.744 191.744 0 0 1-3.36 18.944c-1.12 3.936-2.528 8.704-4.192 14.304s-4.48 10.944-8.416 16c-3.904 5.056-9.248 9.248-15.968 12.608s-15.68 5.056-26.912 5.056H185.6l-1.472 0.032H114.624a29.76 29.76 0 0 1-29.664-29.664v-38.336c0-16.32 13.344-29.664 29.664-29.664h103.52a35388.224 35388.224 0 0 0 49.568-261.312l12.192-64.8c3.648-19.36 6.72-35.488 9.248-48.416s4.064-21.024 4.64-24.384c1.664-8.416 4.064-17.376 7.136-26.944s7.136-18.368 12.192-26.496c5.024-8.128 11.328-14.752 18.912-19.776s16.96-7.552 28.16-7.552h476.96a26.176 26.176 0 0 1 26.112 26.112v23.488a26.176 26.176 0 0 1-26.112 26.112H375.296l-11.776 75.744h441.216c16.256 0 29.824 4.352 40.768 13.056s20.032 24.256 27.296 46.72c3.936 10.656 9.12 25.248 15.552 43.744s12.864 37.152 19.328 55.968c6.464 18.816 12.48 36.064 18.08 51.744 5.632 15.712 9.248 26.112 10.944 31.136s2.656 11.104 2.944 18.112a35.52 35.52 0 0 1-5.024 19.776z m-140.384-478.4c-7.008 7.008-15.392 12.48-25.216 16.384s-20.032 5.888-30.656 5.888c-10.656 0-20.736-1.952-30.24-5.888s-17.792-9.376-24.768-16.384c-7.008-7.04-12.64-15.296-16.832-24.832s-6.304-19.616-6.304-30.304c0-10.656 2.112-20.768 6.304-30.304a80.128 80.128 0 0 1 41.6-41.664 76.64 76.64 0 0 1 60.896 0c9.792 4.224 18.208 9.824 25.216 16.832 7.008 7.008 12.608 15.296 16.8 24.832s6.304 19.616 6.304 30.304c0 10.688-2.112 20.768-6.304 30.304s-9.792 17.792-16.8 24.832z"  horiz-adv-x="1024" />

    
    <glyph glyph-name="app-site" unicode="&#58898;" d="M130.112 534.304C200.32 572.0640000000001 280.64 586.592 280.64 586.656c17.632 76.768 92.832 68.544 92.832 68.544 35.776 86.208 73.344 140.32 73.344 140.32-245.216-41.568-316.704-261.216-316.704-261.216z m152.384 8.16c10.016-44.704 53.92-55.36 53.92-55.424-10.624-117.056 32-227.104 32-227.104-35.136-27.008-34.56-81.216-34.56-81.216-86.496-8.768-172.448 10.08-172.448 10.08-83.424 136.544-48.864 282.592-48.864 282.592 66.432 49.12 169.952 71.072 169.952 71.072zM196 137.82399999999996c68.352-13.856 159.904 0 159.968-0.064 24.48-50.272 95.328-32.64 95.328-32.64 18.624-27.712 109.056-113.888 109.056-113.888-254.592-23.36-364.352 146.56-364.352 146.56z m291.008-6.272c46.4-69.856 136.032-128.416 136.128-128.384 199.328 56.64 260.928 232.864 260.928 232.864-31.296 80.544-97.28 142.176-97.28 142.176-19.36-15.072-47.008-13.216-47.008-13.216-87.2-133.344-228.672-183.104-228.672-183.104-6.496-42.72-24.064-50.336-24.064-50.336zM848.736 615.456c-5.568-66.048-32.768-119.328-32.768-119.392 29.216-36.48 3.776-85.984 3.776-85.984 28.416-21.408 85.472-113.632 85.472-113.632 46.336 200.736-56.48 319.008-56.48 319.008z m-433.28 26.272c13.408 49.504 93.632 158.976 93.696 159.04 205.728-4.64 304.352-134.688 304.352-134.688-5.504-89.408-31.712-138.048-31.712-138.048-47.712 30.272-97.056-10.432-97.056-10.432-110.464 69.568-237.952 77.536-237.952 77.536-1.152 22.272-31.296 46.624-31.296 46.624z m-35.104-157.344c0.8-153.984 28.8-208.096 28.768-208.096 68.992 11.36 95.328-49.92 95.328-49.92 133.344 63.488 191.904 151.84 191.904 151.84-58.112 34.912-35.488 106.176-35.488 106.176-93.696 55.776-211.168 66.688-211.168 66.688-10.016-70.432-69.344-66.688-69.344-66.688z"  horiz-adv-x="1024" />

    
    <glyph glyph-name="angle-down" unicode="&#58899;" d="M927.52 634.24c-8.352 0-15.776-3.936-24.128-12.768l-208.8-220.576-13.984-14.752-150.368-158.848a39.488 39.488 0 0 1-3.232-4.512c-1.088-1.632-2.272-3.456-3.744-5.504l-12.736-18.048-12.736 18.016c-1.472 2.08-2.688 3.904-3.776 5.536a47.232 47.232 0 0 1-3.264 4.576C373.248 351.48800000000006 255.712 475.584 138.144 599.6800000000001l-20.128 21.248c-2.176 2.304-4.192 4.48-6.144 6.144a28.96 28.96 0 0 1-18.912 7.104 30.016 30.016 0 0 1-28.96-23.424c-3.04-12.64 0.224-23.168 10.656-34.176 102.432-107.936 204.736-215.968 307.072-324l102.72-108.448c9.184-9.696 17.984-14.624 26.08-14.624s16.928 4.928 26.144 14.656l409.216 432a88.32 88.32 0 0 1 5.344 5.92c6.784 8.64 8.768 20.096 5.312 30.592a30.496 30.496 0 0 1-29.024 21.44z"  horiz-adv-x="1024" />

    
    <glyph glyph-name="angle-up" unicode="&#58900;" d="M927.52 129.60000000000002c-8.352 0-15.776 3.936-24.128 12.768l-208.8 220.576-13.984 14.752-150.368 158.848a39.488 39.488 0 0 0-3.232 4.512c-1.088 1.632-2.272 3.456-3.744 5.504l-12.736 18.048-12.736-18.016c-1.472-2.08-2.688-3.904-3.776-5.536a47.232 47.232 0 0 0-3.264-4.576c-117.504-124.128-235.04-248.224-352.608-372.32l-20.128-21.248c-2.176-2.304-4.192-4.48-6.144-6.144a28.96 28.96 0 0 0-18.912-7.104 30.016 30.016 0 0 0-28.96 23.392c-3.04 12.64 0.224 23.168 10.656 34.176 102.432 107.936 204.736 215.968 307.072 324l102.72 108.448c9.184 9.696 17.984 14.624 26.08 14.624s16.928-4.928 26.144-14.656l409.216-432c2.112-2.208 3.872-4.064 5.344-5.92 6.784-8.64 8.768-20.096 5.312-30.592a30.496 30.496 0 0 0-29.024-21.44z"  horiz-adv-x="1024" />

    
    <glyph glyph-name="small-routine" unicode="&#58901;" d="M334.144 373.08799999999997c-28.064-14.016-200.928-86.144-81.344-201.984 64.928-64.8 173.664-23.84 199.936 38.656 3.52 43.776 3.456 361.952 3.456 405.728S586.432 893.28 824 760.384c0 0 267.328-155.904-42.432-407.488 0 0-105.92-8.544-81.344 80.8-3.52 26.272 129.024 87.2 111.488 171.296-28.064 99.84-191.232 128.992-233.536 3.52v-396.96c1.696-55.744-108.704-238.72-337.216-161.6 0 0-152.576 65.056-144.128 228.96 6.752 74.336 77.056 165.344 155.936 195.232 87.712 24.512 119.936-62.464 81.344-100.992z"  horiz-adv-x="1024" />

    
    <glyph glyph-name="menu-setting" unicode="&#58902;" d="M511.2 834.528c-247.008 0-447.136-200.192-447.136-447.136 0-247.008 200.128-447.136 447.136-447.136s447.136 200.128 447.136 447.136c0 246.944-200.128 447.136-447.136 447.136z m-149.056-655.808H302.528a29.824 29.824 0 0 0 0 59.616h59.616a29.792 29.792 0 0 0 0-59.616z m0 178.848H302.528a29.824 29.824 0 0 0 0 59.616h59.616a29.792 29.792 0 0 0 0-59.616z m0 178.88H302.528a29.824 29.824 0 0 0 0 59.584h59.616a29.792 29.792 0 0 0 0-59.584z m357.696-357.728h-238.464a29.792 29.792 0 0 0 0 59.616h238.464a29.792 29.792 0 0 0 0-59.616z m0 178.848h-238.464a29.792 29.792 0 0 0 0 59.616h238.464a29.792 29.792 0 0 0 0-59.616z m0 178.88h-238.464a29.792 29.792 0 0 0 0 59.584h238.464a29.792 29.792 0 0 0 0-59.584z"  horiz-adv-x="1024" />

    
    <glyph glyph-name="parameter-setting" unicode="&#58903;" d="M863.168 316.352c35.04 0 66.336 31.296 66.336 66.336s-31.296 66.336-66.336 66.336-66.336-31.296-66.336-66.336 31.296-66.336 66.336-66.336z m0 351.616c35.04 0 66.336 31.296 66.336 66.336s-31.296 66.368-66.336 66.368H380.512c-35.04 0-66.336-31.296-66.336-66.368s31.296-66.336 66.336-66.336h482.656z m-700.864 0c35.04 0 66.336 31.296 66.336 66.336s-31.296 66.368-66.336 66.368-66.336-31.296-66.336-66.368 31.296-66.336 66.336-66.336z m0-218.912c-35.04 0-66.336-31.296-66.336-66.336s31.296-66.336 66.336-66.336h482.656c35.04 0 66.336 31.296 66.336 66.336s-31.296 66.336-66.336 66.336H162.304z m0-348.256c-35.04 0-66.336-27.104-66.336-66.336 0-35.04 31.296-66.336 66.336-66.336s66.336 31.296 66.336 66.336-31.296 66.336-66.336 66.336z m218.208 0c-35.04 0-66.336-27.104-66.336-66.336 0-35.04 31.296-66.336 66.336-66.336h482.656c35.04 0 66.336 31.296 66.336 66.336s-31.296 66.336-66.336 66.336H380.512z"  horiz-adv-x="1024" />

    
    <glyph glyph-name="appjurisdiction" unicode="&#58904;" d="M823.072 497.088H198.08c-27.84 0-50.496-20.768-50.496-46.336v-437.504c0-25.568 22.656-46.368 50.496-46.368h624.992c27.84 0 50.496 20.8 50.496 46.368V450.752c0 25.536-22.656 46.336-50.496 46.336z m-280.992-286.752v-128.64c0-16.384-13.632-29.696-30.368-29.696s-30.368 13.312-30.368 29.696V211.20000000000005a76.928 76.928 0 0 0 31.36 147.232 76.96 76.96 0 0 0 29.376-148.096z m-31.52 527.008c105.696 0 192.48-77.44 199.104-174.976h69.856c-6.752 132.576-124.8 238.496-268.928 238.496s-262.208-105.92-268.928-238.496h69.856c6.624 97.536 93.376 174.976 199.104 174.976z"  horiz-adv-x="1024" />

    
    <glyph glyph-name="appsetting" unicode="&#58905;" d="M917.568 452.288c-4.48 24.16-18.656 39.648-36.032 39.296h-3.616c-59.552 0-108.096 49.28-108.096 109.856 0 20 9.344 41.888 9.44 42.08a50.112 50.112 0 0 1-16.48 60.064l-1.088 0.768-105.024 59.2a53.984 53.984 0 0 1-58.88-12c-12.736-13.312-52.8-47.872-85.088-47.872-32.64 0-72.864 35.296-85.568 48.8a53.92 53.92 0 0 1-58.816 12.448l-1.184-0.48L259.52 704.384l-1.024-0.768a50.048 50.048 0 0 1-16.576-60c0.096-0.256 9.472-22.144 9.472-42.144 0-60.608-48.48-109.856-108.128-109.856h-3.584c-17.408 0.416-31.584-15.136-36.064-39.296-0.352-1.92-8.736-47.168-8.736-82.816 0-35.712 8.384-80.864 8.672-82.784 4.416-23.84 18.336-39.296 35.424-39.296h4.256c59.616 0 108.128-49.312 108.128-109.888 0-20-9.344-41.952-9.408-42.048a50.432 50.432 0 0 1 16.416-60.16l1.056-0.736 103.04-58.464c6.176-2.752 12.896-4.064 20-4.064 14.944 0 29.568 6.176 39.072 16.64 11.904 13.312 53.536 50.912 86.88 50.912 33.568 0 74.56-37.472 87.52-51.872a53.28 53.28 0 0 1 58.976-13.12l1.088 0.512 105.696 59.392 1.056 0.832a50.08 50.08 0 0 1 16.512 59.968c-0.096 0.192-9.44 22.144-9.44 42.144 0 60.608 48.544 109.888 108.096 109.888h3.616c17.376-0.416 31.552 15.136 36.032 39.296 0.416 1.92 8.736 47.072 8.736 82.784 0 35.648-8.32 80.896-8.736 82.816z m-406.976-222.464c-75.936 0-137.664 62.816-137.664 139.936 0 77.152 61.728 139.936 137.664 139.936s137.664-62.72 137.664-139.936c0-77.12-61.728-139.936-137.664-139.936z"  horiz-adv-x="1024" />

    
    <glyph glyph-name="system-info" unicode="&#58906;" d="M689.024 280l155.904-153.088a75.808 75.808 0 0 0 0-108.48l-31.072-30.624a78.944 78.944 0 0 0-110.4 0l-156.032 153.376a39.008 39.008 0 0 0-11.296 24.512c-1.504 18.144-8.48 36.416-22.592 50.24s-32.544 21.248-51.136 22.144a38.624 38.624 0 0 0-24.96 11.136 37.792 37.792 0 0 0 0 54.24l24.224 23.776-244.768 246.56s-10.112 11.904-19.328 13.664c-10.976 2.08-25.248 3.712-35.52 15.296-18.56 20.96-47.552 56.192-63.296 78.016-6.688 9.216-5.184 15.616 1.344 21.984l17.088 16.8c6.528 6.528 13.088 7.872 22.432 1.344 22.304-15.584 58.112-44 79.488-62.272 11.744-10.112 13.536-24.064 15.616-34.912 1.792-9.056 13.952-19.04 13.952-19.04l251.008-240.32 24.224 23.776a39.36 39.36 0 0 0 55.136 0c6.848-6.848 10.848-15.616 11.296-24.512 0.896-18.272 8.48-36.256 22.592-50.24 14.112-13.824 32.704-20.8 51.136-22.304 8.928-0.736 18.144-4.448 24.96-11.136z m0 0z m237.344 354.176a174.656 174.656 0 0 0-52-137.76c-44.736-44-107.584-61.984-164.64-47.712a43.712 43.712 0 0 1-41.152-11.136l-49.504-48.608a72.128 72.128 0 0 1-15.584 22.88c-13.824 13.664-32.256 21.088-51.872 21.088s-38.048-7.584-51.872-21.088l-0.288-0.288-42.656 40.864 101.792 100.32a40.64 40.64 0 0 1 11.904 37.312 174.464 174.464 0 0 0 49.792 156.064c67.616 66.432 175.968 68.8 246.4 6.976L715.264 671.36l-1.632-76.384 66.592-39.68 146.24 78.912z m0 0z m-513.152-307.072a70.816 70.816 0 0 1 0.288-101.664c6.688-6.688 14.72-11.904 23.2-15.456l-195.712-192.16c-31.36-30.752-82.048-30.752-113.376 0s-31.36 80.544 0 111.328l244.448 240.032 41.472-41.76-0.288-0.288z m0 0z"  horiz-adv-x="1024" />

    
    <glyph glyph-name="market" unicode="&#58907;" d="M816.64 804.512H211.776A114.72 114.72 0 0 1 97.184 689.92v-608a114.72 114.72 0 0 1 114.592-114.592H816.64a114.72 114.72 0 0 1 114.592 114.592v608a114.72 114.72 0 0 1-114.592 114.592z m-89.056-302.848c-8.864-109.984-101.12-196.8-213.376-196.8-112.64 0-205.184 87.456-213.472 198.272a76.992 76.992 0 1 0 60.32-0.672 154.24 154.24 0 0 1 153.152-137.504 154.24 154.24 0 0 1 153.28 138.976 76.928 76.928 0 1 0 60.064-2.272z"  horiz-adv-x="1024" />

    
    <glyph glyph-name="distribution" unicode="&#58908;" d="M469.088 324.51199999999994L320.448 683.328c-122.784-62.4-207.104-189.6-207.104-336.736 0-208.672 169.152-377.824 377.824-377.824 147.168 0 274.336 84.32 336.736 207.104l-358.816 148.64z m204.416 386.784L528.928 362.24l349.024-144.576c18.464 44.544 28.8 93.344 28.8 144.576 0 157.44-96.352 292.256-233.248 349.056z m-182.304-289.248l144.576 349.056c-44.544 18.464-93.344 28.768-144.576 28.768s-100.032-10.304-144.576-28.768l144.576-349.056z"  horiz-adv-x="1024" />

    
    <glyph glyph-name="user" unicode="&#58909;" d="M838.976 157.34400000000005c2.656-8.256 4.8-18.976 6.208-31.808 1.312-13.152 2.048-26.112 2.048-39.168 0-12.96-0.928-25.28-2.88-36.928-1.952-11.552-4.896-20.544-8.768-26.528-2.784-3.872-10.72-8.032-23.648-12.416-13.152-4.512-29.088-8.768-47.84-12.96a1168 1168 0 0 0-63.552-11.552c-23.552-3.776-47.008-6.848-70.304-9.6-23.232-2.976-45.824-5.12-67.744-6.752-21.888-1.728-40.896-2.56-56.864-2.56-24.352 0-53.216 1.92-86.432 5.472s-65.728 7.744-97.312 12.864a1359.936 1359.936 0 0 0-83.136 15.424c-23.872 5.312-38.24 9.824-43.232 13.568-6.112 4.608-10.72 18.08-13.792 40.8s-1.824 51.712 3.872 87.232c3.296 20.416 11.584 36 24.864 46.528a155.2 155.2 0 0 0 47.008 24.928 706.432 706.432 0 0 0 55.776 16.608 172.864 172.864 0 0 1 50.304 21.504c11.648 7.36 20.64 14.272 27.072 20.8 6.304 6.624 10.72 13.248 13.152 20a57.28 57.28 0 0 1 3.744 20.704c0 7.264-0.32 14.976-0.832 23.296-1.056 13.376-5.312 23.648-12.8 30.752-7.456 7.264-15.936 14.72-25.376 22.464a51.616 51.616 0 0 0-11.648 16.192 384.288 384.288 0 0 0-9.088 21.216 1179.104 1179.104 0 0 0-8.352 25.76 38.304 38.304 0 0 0-11.648 5.856 83.2 83.2 0 0 0-10.816 11.648c-3.872 5.024-7.2 12.128-9.888 21.504a66.784 66.784 0 0 0-2.976 25.28c0.832 7.584 2.336 14.016 4.608 19.584 2.24 6.048 5.536 11.904 10.016 17.44-0.608 20.992 0.544 42.048 3.296 63.104 2.24 17.76 6.336 36.576 12.128 56.512a185.984 185.984 0 0 0 25.152 53.952c10.72 15.04 22.464 27.264 35.52 36.864a180.48 180.48 0 0 0 79.744 34.56 243.424 243.424 0 0 0 39.232 3.296c16.256 0 31.552-1.984 46.24-5.792 14.688-3.904 28.448-8.832 41.216-14.976 12.736-6.016 24.192-12.8 34.048-20.224 9.984-7.584 18.08-15.104 24.064-22.88a190.4 190.4 0 0 0 31.328-58.592c6.848-21.376 11.744-41.376 14.464-60.224 3.296-22.144 4.704-44.384 4.064-66.432 3.968-2.208 7.04-5.536 9.184-9.92 2.144-3.968 4.064-8.864 5.44-14.944 1.312-6.176 1.632-13.568 0.512-22.464-1.824-11.712-4.288-20.832-7.936-27.776a55.04 55.04 0 0 0-12-16.256 42.24 42.24 0 0 0-15.712-9.152c-2.24-8.864-4.704-17.376-7.584-25.76a274.88 274.88 0 0 0-9.6-21.248 55.456 55.456 0 0 0-12.128-16.192 147.616 147.616 0 0 0-14.144-11.136 93.056 93.056 0 0 1-11.648-9.568c-3.36-3.36-6.016-7.36-8.16-12.064a66.24 66.24 0 0 1-5.216-16.96c-1.664-8.352-2.08-16.832-1.664-25.376 0.736-8.672 2.88-17.12 6.624-25.696 3.872-8.672 10.304-16.832 19.168-24.608 8.768-7.616 20.672-14.56 35.712-20.8 13.888-5.44 28.992-10.272 45.28-14.464s32.128-9.184 47.424-15.008c15.104-5.696 28.672-13.056 40.704-21.824 12.064-9.088 20.512-20.736 25.536-35.104z"  horiz-adv-x="1024" />

    
    <glyph glyph-name="message" unicode="&#58910;" d="M509.184 372.15999999999997c18.688 0 36.32 6.336 49.696 17.888l347.488 302.944-7.04 5.664a82.304 82.304 0 0 1-51.936 18.368H178.848c-21.184 0-41.44-8.096-57.056-22.752l-6.08-5.728 343.808-298.496c13.344-11.52 30.976-17.856 49.664-17.856z m407.424 250.048a27.424 27.424 0 0 0-1.6-0.864c-0.96-0.48-1.92-0.96-2.784-1.536l-0.384-0.192-318.272-276.128c-22.528-19.552-52.544-30.304-84.48-30.304s-61.92 10.752-84.48 30.304L94.848 629.696v-488.448l0.096-3.392 0.064-2.368v-18.176l7.488-20 15.744-17.6 12.352-8.832c14.08-10.048 30.72-15.392 48.064-15.392H847.36c17.344 0 34.08 5.44 48.416 15.712l12.704 9.12s12.064 10.016 14.72 14.432c3.04 5.056 6.656 22.592 6.656 22.592l1.184 16.448c0.192 2.4 0.352 4.928 0.352 7.456V634.72l-14.752-12.512z"  horiz-adv-x="1024" />

    
    <glyph glyph-name="article" unicode="&#58911;" d="M810.048 796.512H214.688a91.36 91.36 0 0 1-91.616-91.36v-641.632a91.488 91.488 0 0 1 91.616-91.36h595.36a91.36 91.36 0 0 1 91.616 91.36V705.088a91.456 91.456 0 0 1-91.616 91.392zM303.584 683.296a76.96 76.96 0 1 0 0-153.92 76.96 76.96 0 0 0 0 153.92zM254.72 456.352h408.448a29.792 29.792 0 0 0 17.44-53.952v-4.16h-8.128a29.888 29.888 0 0 0-9.312-1.504H254.72a29.728 29.728 0 0 0-9.312 1.504H242.56v1.088a29.76 29.76 0 0 0 12.128 57.024z m409.28-298.08H255.552a29.792 29.792 0 0 0-7.776 1.056h-5.248v1.952a29.76 29.76 0 0 0 12.992 56.576h408.448a29.824 29.824 0 0 0 0-59.616z m0.288 113.76H255.84a29.792 29.792 0 1 0 0 59.584h408.448a29.792 29.792 0 0 0 0-59.584z"  horiz-adv-x="1024" />

    
    <glyph glyph-name="userjurisdiction" unicode="&#58912;" d="M897.792 210.88h-26.048v39.936c0.352 11.68 0.32 71.84-36.896 110.24-20.928 21.568-49.568 32.512-85.216 32.512h-0.48a108.16 108.16 0 0 1-10.976 0.544c-17.248 0-50.08-3.872-75.936-29.856-24.512-24.608-36.832-62.816-36.64-113.568v-39.84h-23.488c-18.944 0-33.792-13.984-33.792-31.84v-182.08c0-17.824 14.848-31.776 33.792-31.776h295.68c18.816 0 33.568 13.952 33.568 31.776v182.08c0 17.856-14.752 31.84-33.568 31.84z m-84.448 40.256v-40.256h-124.032v39.84c0 53.952 21.184 82.624 61.248 82.848h1.248c17.12-0.032 30.4-5.152 40.576-15.712 22.4-23.232 21.056-65.024 20.992-66.752z m-150.496 213.44c31.04 23.232 43.904 29.12 43.904 73.056s-36.16 43.936-36.16 43.936 0-1.248-12.864 71.104c-12.512 70.208-81.152 145.12-193.824 149.44v0.416c-1.664 0-3.2-0.192-4.896-0.192-1.856 0-3.648 0.192-5.536 0.192v-0.48C355.52 797.12 285.024 722.56 272.576 652.672c-12.928-72.352-12.928-71.104-12.928-71.104s-36.128 0-36.128-43.936 12.864-59.488 43.872-82.72c31.008-23.264 21.792-73.344 69.728-117.536 25.6-23.584 43.936-41.376 43.936-75.04 0-33.536-18.112-41.28-36.16-51.616s-139.552-43.936-196.416-82.752c-56.864-38.816-54.304-59.424-54.304-93.024 0-56.864 72.416-64.672 72.416-64.672h304.256s38.24-0.896 38.24 36.448l1.248 183.2c-1.472 175.904 45.312 239.712 152.48 274.624z"  horiz-adv-x="1024" />

    
    <glyph glyph-name="registersite" unicode="&#58913;" d="M899.648 547.6800000000001c-21.696 50.848-51.648 95.584-89.056 132.96s-82.144 67.36-132.96 89.056c-51.04 21.792-105.824 32.832-162.848 32.832s-111.84-11.04-162.848-32.832a431.264 431.264 0 0 1-133.728-88.864 411.392 411.392 0 0 1-90.176-133.152c-21.76-51.04-32.8-105.824-32.8-162.848s11.04-111.808 32.8-162.848c21.696-50.816 51.968-95.872 89.984-133.92s83.072-68.32 133.92-90.016c51.04-21.76 105.824-32.8 162.848-32.8s111.84 11.04 162.848 32.8a412.096 412.096 0 0 1 133.152 90.176 431.264 431.264 0 0 1 88.864 133.728c21.76 51.04 32.832 105.856 32.832 162.848s-11.04 111.808-32.832 162.848z m-178.592-188.768h-10.4l-4.064-0.256h-169.472v-164.32c0-3.2-0.32-6.208-0.896-9.024v-1.632a29.792 29.792 0 0 0-59.616 0v174.976h-152.352c-2.016 0-3.968 0.096-5.888 0.256h-5.792a29.792 29.792 0 0 0 0 59.584h9.664c0.672 0.032 1.312 0.096 2.016 0.096h152.352V592.0640000000001a29.792 29.792 0 0 0 59.616 0v-3.968c0.576-2.816 0.896-5.824 0.896-9.024v-160.512h170.048c0.704 0 1.344-0.064 2.016-0.096h11.872a29.792 29.792 0 0 0 0-59.616z"  horiz-adv-x="1024" />

    
    <glyph glyph-name="file" unicode="&#58914;" d="M874.624 3.3279999999999745H155.04s-57.312-8.928-57.312 67.52V688.544s1.28 68.768 71.328 68.768h252.192s30.56 6.368 56.032-33.12c24.192-38.208 38.208-62.4 38.208-62.4s8.928-10.176 29.312-10.176h324.768s57.312 6.368 57.312-57.312v-527.264s8.928-63.68-52.224-63.68zM821.12 487.296a28.288 28.288 0 0 1-28.032 28.032H232.704c-16.544 0-29.28-12.736-29.28-28.032v-2.528a28.8 28.8 0 0 1 29.28-29.28h560.384c15.264 0 28.032 12.736 28.032 29.28v2.528z"  horiz-adv-x="1024" />

    
    <glyph glyph-name="systemmenu" unicode="&#58915;" d="M478.112 158.55999999999995v189.888H288.224a189.888 189.888 0 1 1 189.888-189.888z m68 0.64v189.888H736a189.888 189.888 0 1 0-189.888-189.888zM477.856 609.184v-189.888H287.968a189.888 189.888 0 1 0 189.888 189.888z m68-0.608v-189.888h189.888a189.888 189.888 0 1 1-189.888 189.888z"  horiz-adv-x="1024" />

    
    <glyph glyph-name="reply" unicode="&#58916;" d="M513.312 87.45600000000002c-26.72 0-52.8-1.76-78.176 2.4L277.152-33.91999999999996v185.12c-95.584 67.04-182.112 169.888-182.112 285.44 0 202.144 187.296 366.048 418.272 366.048s418.336-163.904 418.336-366.048c0-202.08-187.36-349.184-418.336-349.184z m-154.816 198.688h313.696c13.472 0 24.448 10.528 24.448 28.352 0 17.888-10.944 32.32-24.448 32.32h-313.696c-13.536 0-24.512-14.432-24.512-32.32 0-17.824 10.976-28.352 24.512-28.352z m313.696 312.64h-313.696c-13.536 0-24.512-14.432-24.512-32.32 0-17.824 10.976-28.352 24.512-28.352h313.696c13.472 0 24.448 10.528 24.448 28.352 0 17.888-10.944 32.32-24.448 32.32z m48.96-124.352H309.504c-13.472 0-24.448-14.048-24.448-31.36s10.976-31.296 24.448-31.296h411.648c13.536 0 24.512 13.984 24.512 31.296s-10.976 31.36-24.512 31.36z"  horiz-adv-x="1024" />

    
    <glyph glyph-name="crontab" unicode="&#58917;" d="M752.672 270.88a130.56 130.56 0 1 1 0-261.184 130.56 130.56 0 0 1 0 261.184z m100.8-130.624a5.12 5.12 0 0 0-1.92-3.936l-79.648-66.336a4.48 4.48 0 0 0-2.816-1.152c-1.632 0-3.296 1.248-3.296 4.032v36.992h-108.128a5.792 5.792 0 0 0-5.792 5.792v49.248c0 3.2 2.592 5.792 5.792 5.792h108.128v37.024c0 2.784 1.632 4.032 3.296 4.032 0.96 0 1.888-0.384 2.816-1.152l79.648-66.336a5.12 5.12 0 0 0 1.92-3.936zM512.192 801.152c-229.92 0-416.992-186.944-417.056-416.768 0-229.792 187.072-416.736 417.056-416.736a414.72 414.72 0 0 1 130.304 20.864l3.616 1.184-3.104 2.176a186.208 186.208 0 0 0-79.04 151.968 185.952 185.952 0 0 0 185.76 185.76 185.92 185.92 0 0 0 152.992-80.544l2.144-3.136 1.216 3.584c14.816 43.36 22.304 88.736 22.304 134.88 0 229.792-186.72 416.768-416.224 416.768z m39.936-414.464a29.056 29.056 0 0 0-0.8-6.72v-35.968l-13.984-8.416a29.152 29.152 0 0 0-7.104-5.92l-188.64-112.64a29.76 29.76 0 1 0-30.56 51.168l181.888 108.608v5.056a29.76 29.76 0 0 0-0.416 4.8V606.3679999999999a29.792 29.792 0 0 0 59.648 0v-219.712z"  horiz-adv-x="1024" />

    
    <glyph glyph-name="redact" unicode="&#58918;" d="M511.776 801.344c-230.848 0-417.952-187.104-417.952-417.952S280.928-34.559999999999945 511.776-34.559999999999945c230.816 0 417.952 187.136 417.952 417.952S742.592 801.344 511.776 801.344z m215.136-283.616c-11.232-12.608-47.744-49.44-47.744-49.44l-0.128 0.128-242.016-246.016-145.408-61.088 57.216 152.544-0.16 0.16 244.16 240.864 42.368 42.368s19.392 18.4 44.608 0 47.104-42.656 47.104-42.656 11.232-24.256 0-36.896z"  horiz-adv-x="1024" />

    
    <glyph glyph-name="fans" unicode="&#58919;" d="M927.648 546.912c-17.376 124.704-126.656 209.664-242.464 209.664a233.984 233.984 0 0 1-105.92-25.28c-24.064-12.128-45.632-29.28-69.632-44.96 0 0-1.568 1.216-3.008 2.56-47.296 44.576-107.328 67.552-168.064 67.552a244.352 244.352 0 0 1-122.496-33.184 244.064 244.064 0 0 1-118.272-252.896c9.984-57.888 38.176-105.728 78.912-146.784 76.96-77.568 210.016-211.36 283.296-284.96a73.504 73.504 0 0 1 52.32-21.792c18.88 0 37.792 7.232 52.224 21.728 75.232 75.328 213.664 214.496 293.536 296.896 56.352 58.144 80.896 129.92 69.568 211.456z"  horiz-adv-x="1024" />

    
    <glyph glyph-name="appstatistics" unicode="&#58920;" d="M482.656 744.384v-388.48h388.8c0-214.496-174.048-388.48-388.8-388.48-214.688 0-388.8 173.888-388.8 388.48 0 214.496 174.048 388.48 388.8 388.48z m56.064 55.968c214.688 0 388.8-173.984 388.8-388.48h-388.8V800.352z"  horiz-adv-x="1024" />

    
    <glyph glyph-name="qrcode" unicode="&#58921;" d="M369.568 314.94399999999996h73.152v-73.12h-73.152v73.12z m142.208 487.008C280.928 801.952 93.824 614.848 93.824 384s187.104-417.952 417.952-417.952c230.816 0 417.952 187.136 417.952 417.952S742.592 801.952 511.776 801.952zM310.72 502.88a82.24 82.24 0 0 0 82.176 82.176h26.464a29.44 29.44 0 0 0 0-58.88h-26.464a23.328 23.328 0 0 1-23.296-23.296v-26.496c0-16.224-13.216-29.44-29.44-29.44s-29.44 13.216-29.44 29.44v26.496z m190.88-264.096c0-30.784-25.056-55.84-55.84-55.84h-79.2a55.904 55.904 0 0 0-55.84 55.84v79.2c0 30.784 25.056 55.84 55.84 55.84h79.2c30.784 0 55.84-25.056 55.84-55.84v-79.2z m39.616 237.632c0-16.224-13.216-29.44-29.44-29.44s-29.44 13.216-29.44 29.44v79.2c0 16.224 13.216 29.44 29.44 29.44s29.44-13.216 29.44-29.44v-79.2z m171.616-208.512a85.056 85.056 0 0 0-84.96-84.96h-50.08c-16.224 0-29.44 13.216-29.44 29.44s13.216 29.44 29.44 29.44h50.08a26.112 26.112 0 0 1 26.08 26.08v76.48c0 16.224 13.216 29.44 29.44 29.44s29.44-13.216 29.44-29.44v-76.48z m0 208.512c0-16.224-13.216-29.44-29.44-29.44s-29.44 13.216-29.44 29.44v26.496a23.328 23.328 0 0 1-23.296 23.296h-26.464c-16.224 0-29.44 13.216-29.44 29.44s13.216 29.44 29.44 29.44h26.464a82.24 82.24 0 0 0 82.176-82.176v-26.496z"  horiz-adv-x="1024" />

    
    <glyph glyph-name="custommenu" unicode="&#58922;" d="M621.376-0.03200000000003911l205.376 205.376-59.52 59.52-205.344-205.344c-3.296-1.504-6.048-4.768-7.68-9.696l-21.728-65.12c-3.872-11.712 2.432-18.016 14.112-14.112l65.12 21.696c4.896 1.632 8.128 4.384 9.664 7.648z m-181.76 22.592l298.112 298.112V584.2239999999999h-148.768a59.52 59.52 0 0 0-59.52 59.52V796.256H228.16a85.568 85.568 0 0 1-85.6-85.568v-621.184c0-36.992 30.016-66.976 66.976-66.976h230.08z m178.912 764.16h-30.336l30.304-0.032c-16.032 16.032-29.024 10.656-29.024-12v-88.992c0-22.624 18.4-41.024 41.056-41.024h89.024c22.624 0 28.032 12.992 12 29.024l-113.024 113.024z m-356.928-317.76a29.76 29.76 0 0 0 29.76 29.76h297.6a29.76 29.76 0 0 0 0-59.52h-297.6a29.76 29.76 0 0 0-29.76 29.76z m0-119.072a29.76 29.76 0 0 0 29.76 29.76h297.6a29.76 29.76 0 0 0 0-59.52h-297.6a29.76 29.76 0 0 0-29.76 29.76z m519.232-72.608l61.216-61.216 34.432 34.432a22.336 22.336 0 0 1 0.032 31.552l-29.664 29.696a22.336 22.336 0 0 1-31.552-0.032l-34.432-34.432z"  horiz-adv-x="1024" />

    
    <glyph glyph-name="keyword" unicode="&#58923;" d="M817.408 799.904H207.104a111.072 111.072 0 0 1-110.88-110.88V78.72000000000003a111.168 111.168 0 0 1 110.88-110.88h610.304a111.168 111.168 0 0 1 110.88 110.88V689.024a111.168 111.168 0 0 1-110.88 110.88z m-101.248-286.56h-175.904v-337.696a29.792 29.792 0 0 0-59.616 0V513.344H307.712a29.792 29.792 0 0 0 0 59.616H716.16a29.76 29.76 0 1 0 0-59.616z"  horiz-adv-x="1024" />

    
    <glyph glyph-name="parameter" unicode="&#58924;" d="M511.776 801.088c-230.688 0-417.728-187.008-417.728-417.696s187.04-417.728 417.728-417.728c230.688 0 417.696 186.976 417.696 417.728S742.464 801.088 511.776 801.088zM386.88 178.59199999999998a17.088 17.088 0 0 0-16.928-16.992H342.4a17.12 17.12 0 0 0-16.992 16.992v178.944c0 9.312 7.68 16.992 16.992 16.992h27.552c9.312 0 16.928-7.68 16.928-16.992v-178.944z m311.968 0c0-9.248-7.68-16.992-16.96-16.992h-27.488a17.056 17.056 0 0 0-16.992 16.992v305.408a16.96 16.96 0 0 0 16.992 16.896h27.488a16.96 16.96 0 0 0 16.96-16.896v-305.408z m-158.08 0a17.056 17.056 0 0 0-16.896-16.992h-24.128a17.056 17.056 0 0 0-16.992 16.992V615.552a16.96 16.96 0 0 0 16.992 16.896h17.376c9.312 0 23.648-7.616 23.648-16.896v-436.96z"  horiz-adv-x="1024" />

    
    <glyph glyph-name="card" unicode="&#58925;" d="M924.48 294.144c-45.696 3.392-69.184 40.544-70.304 88.16-1.152 48.064 24.48 89.12 70.176 91.488 4.224 0.224 5.408 1.6 5.376 5.984-0.128 57.408 0 114.816-0.128 172.224-0.096 36.544-18.56 54.464-53.408 54.464H283.264l-134.56-0.032c-5.248 0-7.136-0.416-12.192-1.696-26.048-6.56-43.52-30.24-43.584-59.36-0.16-58.144-0.032-108.64-0.032-166.784 0-1.216 0.16-2.464 0.256-4.256 24.128-0.672 37.76-9.536 54.464-27.84 16.832-18.496 24.832-40.704 23.936-66.304a89.344 89.344 0 0 0-19.616-53.568c-17.024-21.376-32-32.928-58.816-32.928-0.096-2.144-0.192-2.944-0.192-3.968 0-58.304-0.032-109.024 0.064-167.328 0-4.608 0.544-9.28 1.44-13.824 4.832-24.8 23.296-47.264 55.648-47.232l135.424 0.128v0.032c196.736 0.096 392.48 0.032 589.536 0.032 4.256 0 10.816 0 14.976 0.768 28.576 5.312 38.432 21.728 38.528 52.96 0.192 57.76 0.576 115.52 0.704 173.312 0 4.352-0.928 5.344-4.672 5.6z"  horiz-adv-x="1024" />

    
    <glyph glyph-name="flow" unicode="&#58926;" d="M511.232 800.064c-229.824 0-416.16-186.336-416.16-416.192S281.408-32.32000000000005 511.232-32.32000000000005c229.856 0 416.192 186.336 416.192 416.192S741.12 800.032 511.232 800.032zM472.672 349.76l-0.064-1.696v-132.608l-126.816 126.88h67.2v171.168h0.064v8.768a29.824 29.824 0 0 0 59.616 0v-172.512z m136.832 75.744v-171.136h-0.352v-8.992a29.76 29.76 0 1 0-59.616 0v172.512c0 1.472 0.128 2.912 0.352 4.32V552.3199999999999l0.16-0.16 126.656-126.656h-67.2z"  horiz-adv-x="1024" />

    
    <glyph glyph-name="appmsg" unicode="&#58927;" d="M539.232 406.56l-129.664 129.632-77.792-77.792v-129.632h363.04v77.792l-77.792 77.792z m103.712 129.664a51.84 51.84 0 1 1 0 103.68 51.84 51.84 0 0 1 0-103.68z m179.584 260.8H203.904c-56.512 0-103.04-50.72-103.04-107.36v-614.976a102.464 102.464 0 0 1 102.4-102.496h614.592c56.576 0 107.84 46.464 107.84 103.104V693.92a103.648 103.648 0 0 1-103.168 103.104z m-103.104-709.952H307.072a25.76 25.76 0 0 0 0 51.552h412.416a25.792 25.792 0 1 0-0.064-51.552z m53.184 189.856a25.92 25.92 0 0 0-25.92-25.92H279.936a25.92 25.92 0 0 0-25.92 25.92V656.704a25.92 25.92 0 0 0 25.92 25.952h466.752a25.92 25.92 0 0 0 25.92-25.952v-379.776z"  horiz-adv-x="1024" />

    
    <glyph glyph-name="hint" unicode="&#58928;" d="M511.552 800.576c-229.824 0-416.16-186.336-416.16-416.192s186.336-416.224 416.16-416.224c229.856 0 416.192 186.336 416.192 416.224S741.408 800.576 511.552 800.576z m0.032-644.576c-23.296 0-42.24 17.472-42.24 38.944 0 2.752 2.272 4.992 5.12 4.992h74.272c2.848 0 5.12-2.24 5.12-4.992 0-21.44-18.976-38.944-42.24-38.944z m185.504 78.752a5.12 5.12 0 0 0-5.12-5.024H331.168a5.12 5.12 0 0 0-5.12 5.024v36.416c0 21.952 26.496 39.392 61.44 41.248a109.888 109.888 0 0 0-6.432 36.896v101.184c0 51.552 35.296 96.608 88.256 113.184v10.208c0 21.472 18.944 38.912 42.24 38.912s42.24-17.44 42.24-38.912v-10.208c52.928-16.544 88.256-61.568 88.256-113.184v-101.184c0-12.48-2.176-24.832-6.432-36.896 34.912-1.856 61.472-19.296 61.44-41.248v-36.416z"  horiz-adv-x="1024" />

    
    <glyph glyph-name="search" unicode="&#58929;" d="M875.008-29.75999999999999c-12.544 0-24.384 4.96-33.344 13.952L633.6 193.98400000000004a35.552 35.552 0 0 0-2.72 3.488l-15.328 20.544-19.84-13.024a315.904 315.904 0 0 0-173.696-52.032c-175.904 0-319.008 144.352-319.008 321.792S246.112 796.544 422.016 796.544c175.904 0 319.008-144.352 319.008-321.792a321.92 321.92 0 0 0-51.648-175.2l-12.448-19.264 17.984-14.24 2.24-1.728c1.344-1.024 2.592-1.984 3.2-2.592l208-209.76a48.384 48.384 0 0 0-0.032-67.84 46.784 46.784 0 0 0-33.312-13.888zM422.016 737.376c-143.776 0-260.768-117.824-260.768-262.688s116.992-262.656 260.768-262.656c143.776 0 260.736 117.824 260.736 262.656s-116.96 262.688-260.736 262.688z"  horiz-adv-x="1024" />

    
    <glyph glyph-name="stick" unicode="&#58930;" d="M818.656 792.512H205.888c-61.344 0-111.328-48.768-111.328-108.64v-597.92c0-59.84 50.112-108.64 111.328-108.64h612.768c61.344 0 111.328 48.896 111.328 108.64V683.8720000000001c0 59.872-50.112 108.64-111.328 108.64zM690.24 293.24800000000005c-6.016-5.728-13.856-8.576-21.728-8.576s-15.712 2.88-21.728 8.576l-102.912 98.24v-204c0-16.192-13.76-29.312-30.72-29.312s-30.72 13.12-30.72 29.312V392.32l-103.808-99.072c-5.984-5.728-13.856-8.576-21.728-8.576s-15.712 2.88-21.728 8.576a28.384 28.384 0 0 0 0 41.472l155.36 148.288a31.488 31.488 0 0 0 22.176 8.576l0.448 0.032c0.992 0 2.016-0.064 3.008-0.16l1.344-0.192a24.096 24.096 0 0 0 3.136-0.576l1.376-0.352 1.472-0.48c0.48-0.16 0.928-0.288 1.376-0.48l1.344-0.576a26.464 26.464 0 0 0 1.376-0.64l1.248-0.704c0.416-0.224 0.896-0.48 1.312-0.768l1.344-0.928c0.352-0.256 0.736-0.48 1.088-0.768a26.144 26.144 0 0 0 2.272-1.952l155.36-148.288a28.384 28.384 0 0 0 0-41.472z m9.856 259.744h-375.68c-16.96 0-30.72 13.12-30.72 29.312s13.76 29.312 30.72 29.312h375.68c16.96 0 30.72-13.12 30.72-29.312s-13.76-29.312-30.72-29.312z"  horiz-adv-x="1024" />

    
    <glyph glyph-name="cut" unicode="&#58931;" d="M95.04 383.84000000000003c0-229.824 186.336-416.16 416.16-416.16 229.888 0 416.224 186.336 416.224 416.16S741.088 800.032 511.2 800.032C281.344 800.032 95.04 613.696 95.04 383.84000000000003z m450.336-38.528c0.576 0 1.12-0.064 1.696-0.096h132.608l-126.912-126.816v67.2l-179.936 0.096a29.792 29.792 0 0 0 0 59.584h172.512z m-75.776 136.832h171.136v-0.32h8.992a29.792 29.792 0 0 0 0-59.616h-172.544a31.904 31.904 0 0 0-4.32 0.352h-130.112l0.16 0.16 126.656 126.624v-67.2z"  horiz-adv-x="1024" />

    
    <glyph glyph-name="requirement" unicode="&#58932;" d="M512.256 31.67999999999995c-13.856 0-26.848 5.376-36.64 15.168l-88.928 88.928H198.592a104.704 104.704 0 0 0-104.576 104.576V635.5840000000001A104.704 104.704 0 0 0 198.592 740.16h627.264a104.704 104.704 0 0 0 104.576-104.576v-395.232a104.704 104.704 0 0 0-104.576-104.576H637.76l-88.896-88.928a51.488 51.488 0 0 0-36.64-15.168z m-5.664 282.624c-13.12 0-23.584-4.064-31.936-12.448-9.12-8-13.6-18.432-13.6-31.936s4.48-23.968 13.664-31.968c8.576-8.608 19.328-12.96 31.904-12.96 12.896 0 23.392 3.936 33.056 12.384a44.8 44.8 0 0 1 13.056 32.544c0 12.576-4.384 23.296-13.024 31.936-8.832 8.256-19.936 12.448-33.088 12.448z m6.368 275.424c19.68 0 35.072-5.344 45.632-15.936 10.56-11.168 15.936-26.144 15.936-44.48 0-14.4-5.184-28-15.392-40.512l-6.944-8.096c-38.144-34.048-60.384-58.176-67.872-73.728-2.592-4.992-4.992-13.888-7.104-26.432-1.664-9.888 1.088-19.968 7.584-27.648 6.528-7.712 16.096-12.16 26.208-12.16 16.608 0 30.752 11.84 33.664 28.128 1.568 8.864 3.264 15.168 5.056 18.72 5.568 11.136 13.28 20.576 22.88 28.064 25.216 22.048 43.808 39.136 49.76 45.664l0.352 0.416c14.24 19.104 21.472 43.2 21.472 71.616 0 35.456-11.808 63.744-35.072 84.096-22.784 20.512-53.792 30.912-92.096 30.912-43.328 0-76.672-12.032-101.984-36.736-17.216-16.416-28.288-36.64-33.856-61.76-2.176-9.792 0.224-19.936 6.592-27.872 6.496-8.096 16.16-12.736 26.496-12.736 16.224 0 30.048 11.456 32.928 27.264 2.24 12.32 6.336 22.56 12.16 30.464 11.36 15.328 28.896 22.784 53.664 22.784z"  horiz-adv-x="1024" />

    
    <glyph glyph-name="delete2" unicode="&#58933;" d="M244.512-28.255999999999972a34.656 34.656 0 0 0-34.752 34.464V575.424H813.44v-569.216c0-19.008-15.584-34.464-34.752-34.464H244.48z m445.152 534.88c-29.952 0-54.304-24.224-54.304-54.016v-358.112c0-29.76 24.352-53.984 54.304-53.984s54.304 24.192 54.304 53.984V452.608c0 29.792-24.352 54.016-54.304 54.016z m-178.048 0c-29.92 0-54.304-24.224-54.304-54.016v-358.112c0-29.76 24.352-53.984 54.304-53.984s54.304 24.192 54.304 53.984V452.608c0 29.792-24.352 54.016-54.304 54.016z m-178.112 0c-29.92 0-54.24-24.224-54.24-54.016v-358.112c0-29.76 24.384-53.984 54.304-53.984s54.304 24.192 54.304 53.984V462.368h-0.928a54.304 54.304 0 0 1-53.408 44.224z m-168.288 132.48h692.768V673.568c0 19.008-15.584 34.464-34.752 34.464h-232.352V762.048c0 19.008-15.584 34.464-34.752 34.464h-89.056c-19.168 0-34.752-15.424-34.752-34.4V708.16H199.968c-19.168 0-34.752-15.456-34.752-34.464v-34.56z"  horiz-adv-x="1024" />

    
    <glyph glyph-name="copyright" unicode="&#58934;" d="M624.128 347.712c13.856 24.768 25.568 54.752 34.848 89.344l0.608 2.464h-68.576c8.96-36.096 20.064-66.88 33.12-91.808zM511.52 789.344c-28.256-30.656-113.472-93.824-336.416-96.448v-420.608c0-148.896 298.24-276.896 336.48-292.704 38.24 15.776 336.48 143.776 336.48 292.704V692.896c-223.648 2.592-308.512 65.76-336.544 96.448z m223.328-595.296l-0.992-1.792-1.44-1.44a30.624 30.624 0 0 0-22.08-9.344c-7.168 0-14.848 2.432-22.848 7.264l-0.288 0.16a376.48 376.48 0 0 0-64.128 52.896 508.352 508.352 0 0 0-73.376-54.88c-7.456-4.48-14.88-6.752-21.984-6.752a34.24 34.24 0 0 0-24.48 10.624l-1.632 1.632-1.472 2.912a29.984 29.984 0 0 0-22.464-9.984c-3.648 0-7.424 0.64-11.328 1.952l-0.864 0.288-0.96 0.48a34.816 34.816 0 0 0-7.488 5.024 32.64 32.64 0 0 0-16.736-6.496l-1.504-0.16-1.536 0.16c-18.752 1.888-29.952 14.24-29.952 33.024v119.712h-16.032c-3.232-51.104-12.48-96.064-27.552-133.728l-0.128-0.352c-7.744-17.408-20.96-20-28.128-20-3.712 0-7.648 0.672-11.712 2.048l-0.928 0.32-0.896 0.448c-15.488 7.744-21.376 22.528-15.648 39.744l0.288 0.704c18.432 44.448 27.776 97.408 27.776 157.472V581.216c0 17.024 11.648 28 29.696 28 16.992 0 28-10.976 28-28v-82.336h11.904V581.216c0 17.024 11.648 28 29.696 28s29.696-10.976 29.696-28v-82.336h14.432c3.328 0 6.464-0.448 9.344-1.28v45.792c-0.704 14.144 2.784 25.408 10.4 33.408 7.648 8.032 18.752 12.128 32.992 12.128 1.216 0 2.464-0.032 3.552-0.096 62.048 0 115.232 4.48 158.176 13.312 2.784 0.544 5.504 0.832 8.064 0.832 15.072 0 26.016-9.6 29.248-25.728l0.128-0.736 0.096-0.704c1.856-18.784-8.192-32.192-26.88-35.936-41.408-8.064-93.12-12.704-153.856-13.824l-0.832-0.032v-27.2h127.648c2.304 0.16 4.576 0.256 6.752 0.256 16.448 0 28.384-4.928 35.488-14.688 7.616-10.432 8.544-24.416 2.816-42.72-12.96-60.192-32.288-110.752-57.504-150.4 13.024-16.448 33.152-33.632 59.968-51.168l0.96-0.672c15.904-12.352 19.744-28.928 10.56-45.504zM392 439.552v-42.464h34.272l3.616 0.096c12.384 0 22.144-3.68 28.96-10.912 6.944-7.36 10.24-18.08 9.536-31.008v-84.672a260.16 260.16 0 0 1 12.096 48.16c4.16 26.048 6.368 67.072 6.592 122.112-2.88-0.832-6.016-1.28-9.344-1.28h-85.76z m149.216-125.408c-3.68-22.72-9.472-45.376-17.312-67.84 24.064 15.168 44.032 30.688 59.584 46.368a394.112 394.112 0 0 0-36.096 76.224 540.256 540.256 0 0 0-6.176-54.752z"  horiz-adv-x="1024" />

    
    <glyph glyph-name="fansmanage" unicode="&#58935;" d="M558.144 90.17600000000004l255.36 255.392 74.944-74.912-255.392-255.392c-0.64-4.896-4.544-9.12-11.328-11.392l-89.824-29.984c-12.544-4.16-19.296 2.592-15.136 15.136l29.952 89.824c2.272 6.784 6.528 10.688 11.424 11.328z m371.68 454.976L468.672 84a26.56 26.56 0 0 0-23.392 4.96s-152.032 124.16-228.672 202.048c-52.384 53.184-83.264 94.752-97.568 115.808a239.136 239.136 0 0 0 377.088 294.112 241.152 241.152 0 0 0 433.728-155.744z m-99.136-183.936l77.024-77.024 46.304 46.304a23.872 23.872 0 0 1 0 33.792l-43.2 43.2a23.904 23.904 0 0 1-33.792 0l-46.304-46.304z"  horiz-adv-x="1024" />

    
    <glyph glyph-name="goods" unicode="&#58936;" d="M93.728 173.34400000000005V567.488l392.192-166.048v-413.664L93.728 173.34400000000005z m102.944 182.56l183.68-85.408 1.376 84.576-183.712 85.408-1.312-84.576z m343.36 45.536v-413.632l390.784 185.504V567.456l-390.784-166.016zM114.528 614.4l396.672-169.408 400.672 169.792-401.088 170.304L114.56 614.3679999999999z"  horiz-adv-x="1024" />

    
    <glyph glyph-name="order" unicode="&#58937;" d="M555.84 802.656h67.392c14.816 0 26.656-13.184 26.656-29.472s-11.84-29.536-25.92-29.536h-232.672c-14.784 0-26.624 13.216-26.624 29.536s11.84 29.472 26.624 29.472h231.936z m242.528-29.888h-91.456c0.928-4.896 1.472-9.888 1.472-14.88 0.032-37.728-27.328-74.848-59.872-74.848h-280.96c-34.24 0-61.664 37.12-61.664 74.848 0.032 5.024 0.576 9.984 1.504 14.88H214.848c-74.4 0-92.672-42.176-92.672-103.008v-602.688c0-65.376 26.176-101.952 98.304-101.952h572.288c72.128 0 107.168 28.672 107.168 101.92V669.792c0 60.832-32.8 103.008-101.568 103.008z m-93.952-595.072H306.752c-14.656 0-29.28 17.984-29.28 32.672a27.52 27.52 0 0 0 27.04 27.168h396.544c14.656 0 27.04-11.392 28.16-27.168 0-14.688-10.112-32.672-24.768-32.672z m1.632 159.584H308.384c-14.656 0-24 15.776-24 30.464s12.384 29.376 27.04 29.376h396.544c14.656 0 27.04-13.6 28.16-29.376 0-14.688-15.424-30.464-30.048-30.464z m0 163.872H308.384c-14.656 0-24 15.776-24 30.464s12.384 29.376 27.04 29.376h396.544c14.656 0 27.04-13.632 28.16-29.376 0-14.688-15.424-30.464-30.048-30.464z"  horiz-adv-x="1024" />

    
    <glyph glyph-name="update" unicode="&#58938;" d="M511.52 801.472c-230.304 0-417.664-187.36-417.664-417.664s187.36-417.664 417.664-417.664c230.304 0 417.664 187.36 417.664 417.664S741.824 801.472 511.52 801.472z m217.216-375.456c-0.288-9.792-2.4-16.928-6.048-20.576-1.248-1.248-3.744-2.016-7.2-2.24a60.352 60.352 0 0 0-16.064 1.44c-9.92 2.208-20.832 4.576-32.8 7.168a983.808 983.808 0 0 0-62.08 15.488c-10.688 3.072-13.504 4.32-14.272 4.704-2.688 1.28-3.264 2.208-3.2 2.336a7.648 7.648 0 0 0 2.656 5.376c1.216 0.864 3.776 2.848 11.008 8.736 6.4 5.216 13.856 11.2 22.176 17.76l7.744 6.112-6.496 7.392a178.016 178.016 0 0 1-58.048 43.776 169.856 169.856 0 0 1-73.312 16c-24.256 0-47.328-4.608-68.576-13.664-21.152-9.024-39.936-21.632-55.744-37.44s-28.416-34.528-37.472-55.712a172.992 172.992 0 0 1-13.664-68.512c0-23.872 4.608-46.72 13.664-67.968 9.056-21.152 21.664-39.904 37.472-55.68s34.56-28.384 55.744-37.408a173.184 173.184 0 0 1 68.576-13.664 171.264 171.264 0 0 1 106.688 36.576 179.296 179.296 0 0 1 38.272 40.864c10.624 15.616 18.56 32.928 23.52 51.168 2.016 6.592 5.664 11.936 11.136 16.256a29.44 29.44 0 0 0 18.976 6.24c8.832 0 16.096-3.04 22.208-9.28a30.08 30.08 0 0 0 9.152-22.016 31.136 31.136 0 0 0-2.112-11.488l-0.128-0.32-0.096-0.32c-7.36-24.576-18.4-47.52-32.832-68.224s-31.744-38.752-51.584-53.632a243.52 243.52 0 0 0-66.496-35.2 232.768 232.768 0 0 0-76.704-12.672 235.84 235.84 0 0 0-168 69.216 246.72 246.72 0 0 0-50.88 75.424c-12.448 28.512-18.752 59.52-18.752 92.16s6.304 63.744 18.752 92.448c12.512 28.832 29.6 54.208 50.848 75.392s46.624 38.304 75.488 50.784a231.808 231.808 0 0 0 92.544 18.752c36.192 0 70.176-7.552 100.992-22.432a241.344 241.344 0 0 0 79.456-61.088l5.664-6.656 7.04 5.184c8.448 6.208 15.68 11.744 21.504 16.448 5.6 4.512 9.12 7.296 10.464 8.288l0.384 0.288a13.888 13.888 0 0 0 4.736 2.688c0.192-0.16 0.64-0.64 1.216-1.664 0.608-1.056 1.696-3.744 2.432-9.696 0.352-2.944 0.672-8.224 1.056-16.128 0.352-7.84 0.736-16.96 1.088-27.36a953.856 953.856 0 0 0 0-63.424z"  horiz-adv-x="1024" />

    
    <glyph glyph-name="notice" unicode="&#58939;" d="M577.248 744.032a55.072 55.072 0 0 1-40.096 22.496l-5.312 0.288c-14.4-0.064-30.56-6.08-49.44-18.368a1181.76 1181.76 0 0 1-18.112-12.992c-9.216-6.784-20.608-15.2-34.176-25.312-14.656-10.976-31.104-23.072-45.248-33.408-17.856-13.056-35.04-25.76-51.072-37.824-36.224-26.56-77.728-57.472-126.912-94.464l-2.368-1.792H166.56c-41.92 0-73.504-27.424-73.504-63.808v-188.256c0-17.952 7.648-33.984 22.048-46.432 13.504-11.68 30.72-17.6 51.136-17.6h13.76c6.72 0 12.224 0.32 13.984 0.608l0.64 0.128h1.088c2.464 0 4.96 0 7.424 0.096l3.04 0.096 2.464-1.792c27.776-20.32 55.584-40.928 82.656-61.248a9390.656 9390.656 0 0 0 172.704-134.848c19.616-16.288 37.44-24.896 54.528-26.272a92.8 92.8 0 0 1 6.752-0.288c15.04 0 28.256 4.256 39.2 12.704 11.424 8.704 19.904 20.544 25.248 35.168 4.736 12.864 7.136 25.408 7.136 37.312V671.648c0 10.592-1.248 22.272-3.712 34.784a92.032 92.032 0 0 1-15.968 37.632z m341.76-290.656a281.024 281.024 0 0 1-25.952 62.592 289.76 289.76 0 0 1-39.616 54.304 318.144 318.144 0 0 1-49.824 43.936l-0.32 0.224-0.32 0.288a24.48 24.48 0 0 1-16.512 6.08 25.92 25.92 0 0 1-19.328-8.224 26.4 26.4 0 0 1-8.224-19.488c0-9.568 3.776-16.736 11.872-22.56a263.872 263.872 0 0 0 73.024-78.752 202.624 202.624 0 0 0 29.472-106.848c0-19.2-2.624-37.984-7.776-55.84a218.752 218.752 0 0 0-21.632-50.528 257.408 257.408 0 0 0-32.32-43.616 234.144 234.144 0 0 0-39.488-34.496l-0.384-0.384a21.504 21.504 0 0 0-3.104-2.368 26.784 26.784 0 0 1-9.664-20.992c0-7.552 2.688-13.952 8.256-19.488 5.44-5.504 11.744-8.192 19.296-8.192 6.016 0 11.072 1.6 15.456 4.896l0.32 0.224a300.928 300.928 0 0 1 90.496 98.624c11.2 19.584 20.032 40.736 26.24 62.848s9.376 45.408 9.376 69.28c0 23.296-3.136 46.336-9.344 68.48z m-163.584-18.56a216.512 216.512 0 0 1-23.84 41.888c-3.744 5.12-7.616 9.6-11.584 13.344a15.04 15.04 0 0 1-11.008 3.904 21.184 21.184 0 0 1-16.224-6.944 23.584 23.584 0 0 1-6.816-17.024c0-3.232 0.512-6.112 1.504-8.512l0.16-0.416a64 64 0 0 1 7.04-13.6c3.552-4.992 7.072-10.464 10.432-16.256 3.616-6.08 6.528-12.608 8.96-20 2.496-7.552 3.776-16.416 3.776-26.304 0-10.336-1.28-19.456-3.776-27.04-2.496-7.488-5.44-13.952-9.024-19.744-3.424-5.632-6.88-10.88-10.272-15.648-1.984-2.88-3.68-5.632-5.248-8.544l-1.888-5.184a26.016 26.016 0 0 1-1.664-8.96c0-6.624 2.208-12.16 6.816-16.96s9.728-7.008 16.256-7.008c4.608 0 8.224 1.28 11.008 3.936a96.32 96.32 0 0 1 11.68 13.472c9.44 12.384 17.28 26.304 23.328 41.28 5.952 14.688 8.992 31.648 8.992 50.368 0 19.552-2.88 36.352-8.576 49.92z"  horiz-adv-x="1024" />

    
    <glyph glyph-name="skin" unicode="&#58940;" d="M930.784 529.376c-0.064 2.048-0.096 4.064-0.256 6.112-4.672 12.64-13.632 19.2-22.112 27.904-10.304 10.88-22.272 20.224-32.64 31.04-32.832 31.296-65.76 62.56-98.656 93.888l-30.528 29.024c-7.328 6.944-14.496 14.688-23.84 19.616-13.28 6.784-43.2 4.128-63.296 4.128h-20.864c-3.136-1.888-5.856-1.056-9.664-2.528l-13.28-7.232c-7.84-5.632-11.872-15.36-19.392-21.28-19.296-14.944-33.984-19.648-63.296-25.408-5.44-1.088-14.848-2.656-21.44-1.664-4.896 0.32-9.824 0.512-14.752 0.832-15.584 2.816-29.056 5.728-41.76 10.88-10.88 4.448-23.808 12.704-30.624 21.216-5.056 6.336-9.728 12.48-16.192 17.344-4.768 3.616-12.384 4.768-17.632 7.776H319.68v-1.056c-19.744-0.64-28.896-12.64-39.168-22.368-7.04-6.752-14.112-13.44-21.184-20.128L142.496 586.304c-7.008-6.112-13.216-13.184-20.288-19.232-11.872-10.304-23.52-19.968-27.072-38.304-1.504-7.744 2.624-16.064 4.704-20.64 4.864-10.88 13.696-16.896 21.792-24.64 6.688-6.464 13.024-13.28 20.288-19.232 5.856-5.856 11.744-11.648 17.664-17.408l37.312-34.912c5.216-4.96 9.824-10.336 15.904-14.528 8.672-5.856 24.928-11.712 38.848-6.112 16.352 6.528 25.728 19.52 37.888 29.952h1.216V88.99199999999996c0-11.968-0.832-24.512 2.624-33.504 3.04-7.776 10.56-15.616 17.408-19.808 12.224-7.744 33.696-6.208 54.144-6.208h280.672c29.312 0 58.528-2.72 75.104 9.504 6.656 4.96 12.704 14.368 14.624 23.456 0.16 26.24 0.256 52.608 0.32 78.816v279.68a3.584 3.584 0 0 1 0.896 0.576c4.768-2.56 7.84-7.104 11.488-10.656 11.296-10.72 24.992-25.248 49.152-20.896 17.728 3.2 30.272 18.4 40.288 29.312 27.584 26.048 55.168 52.16 82.688 78.24 6.496 8 12.928 18.048 10.56 31.84z"  horiz-adv-x="1024" />

    
    <glyph glyph-name="home" unicode="&#58941;" d="M696.8 444.64a2226.24 2226.24 0 0 0-47.04 43.264c-15.744 14.816-29.248 27.616-41.184 39.072l-31.584 29.152a1478.944 1478.944 0 0 0-14.912 14.08c-14.272 13.248-30.432 19.968-48 19.968l-3.008-0.064a74.24 74.24 0 0 1-48.672-19.84c-2.144-2.144-6.976-6.688-16.288-15.456-9.44-8.864-20.192-18.784-32-29.472l-5.344-4.864c-11.328-10.368-23.68-21.632-37.088-33.792-15.232-13.952-30.976-28.352-46.4-42.848a51595.392 51595.392 0 0 1-123.296-112.512V8.32000000000005c0-12.8 4.384-22.368 13.344-29.216 9.024-6.88 21.504-10.368 37.12-10.368h519.52c14.944 0.48 26.976 5.312 35.712 14.336 8.736 8.928 13.152 19.36 13.152 31.04v315.52c-34.56 32.096-66.656 61.824-96.224 89.184l-27.872 25.824z m230.464-30.208c-0.48 12.704-6.432 24.576-17.696 35.264l-20.8 20.8a2110.72 2110.72 0 0 1-39.04 37.824c-14.336 13.472-30.592 29.216-51.2 49.472a7008.128 7008.128 0 0 1-56.928 55.392c-18.112 17.344-35.936 34.624-53.632 51.712l-3.744 3.616-33.856 32.736-17.28 16.704-38.688 37.472c-10.432 10.24-17.376 16.768-20.8 19.584a82.976 82.976 0 0 1-59.68 24.032h-1.28c-24.096-0.288-45.984-10.304-66.88-30.592-2.816-2.816-12.992-12.352-29.6-27.872-16.384-15.296-35.776-33.536-58.304-54.688l-2.368-2.24a14627.84 14627.84 0 0 0-76.544-71.552l-29.504-27.456c-16.544-15.392-32.32-30.112-47.456-44.128-21.856-20.256-40.864-38.048-57.088-53.216l-5.152-4.832c-16.64-15.648-26.688-25.12-30.016-28.416-8.48-8-13.024-18.88-13.504-32.384s4.64-25.152 15.2-34.656c9.12-8.096 19.648-12.032 32.192-12.032l2.176 0.032c13.6 0.512 24.128 3.872 32.16 10.368 2.688 2.112 10.208 8.864 24.448 21.92 12.992 11.84 28.224 26.08 48.576 45.248a7803.2 7803.2 0 0 0 60.384 56.288l1.152 1.056c19.744 18.208 39.84 36.992 63.232 59.072a8399.52 8399.52 0 0 0 83.84 78.08c16.992 15.232 34.464 23.232 51.968 23.744l1.92 0.032c16.896 0 34.336-8 51.776-23.744 4.384-3.808 14.4-13.216 27.488-25.856 16.64-15.936 33.984-32.416 51.552-49.024 20-18.88 41.216-38.976 63.648-60.288l27.424-25.984c12.416-11.776 24.32-23.072 35.808-33.888l50.752-47.808c14.816-13.952 22.784-21.12 25.312-23.2 8.032-6.944 18.816-10.72 32.128-11.2l2.368-0.064c12.224 0 23.264 4.32 32.768 12.832 9.024 8.544 13.184 18.944 12.704 31.84z"  horiz-adv-x="1024" />

    
    <glyph glyph-name="cache" unicode="&#58942;" d="M922.272 248.51199999999994a126.944 126.944 0 0 1-26.688 39.712 126.624 126.624 0 0 1-39.264 26.688 116.928 116.928 0 0 1-30.816 8.672 281.024 281.024 0 0 1 11.328 79.104 286.4 286.4 0 0 1-23.136 114.208 301.92 301.92 0 0 1-62.688 93.344 292.896 292.896 0 0 1-93.536 63.232 288.448 288.448 0 0 1-114.56 23.136 284.96 284.96 0 0 1-107.84-20.576 295.104 295.104 0 0 1-89.28-56.384 300.896 300.896 0 0 1-63.52-84.032 293.632 293.632 0 0 1-28.832-89.12 177.152 177.152 0 0 1-53.28-17.056 198.336 198.336 0 0 1-54.72-40.608 189.92 189.92 0 0 1-37.216-57.6 180.832 180.832 0 0 1-13.824-70.368c0-24.768 4.64-48.544 13.792-70.688a185.408 185.408 0 0 1 94.144-98.944 183.936 183.936 0 0 1 52.32-15.264l587.808 2.88a122.976 122.976 0 0 1 59.808 38.88 130.88 130.88 0 0 1 21.888 37.216 122.56 122.56 0 0 1 8.032 44.224c0 17.408-3.328 33.984-9.888 49.28z m-311.808 43.232a3792.576 3792.576 0 0 0-64.576-90.432c-10.304-13.92-19.424-25.376-27.072-34.048l-0.512-0.608c-3.584-4.416-6.016-5.696-6.496-5.824-0.608 0.064-3.296 1.28-7.2 5.632a480.256 480.256 0 0 0-25.088 31.296 5382.4 5382.4 0 0 1-29.344 39.008 2176.736 2176.736 0 0 1-31.104 39.968c-10.208 12.864-20.096 25.152-29.376 36.576l-0.256 0.32a49.792 49.792 0 0 0-4.928 6.72h13.44c5.856 0 11.776 0.128 17.664 0.416l17.12 0.8a149.44 149.44 0 0 1 13.888 1.152c19.52 0.512 27.328 11.04 30.272 17.376 3.296 7.104 4.896 16.032 4.896 27.36v23.2c0 7.584-0.128 14.4-0.416 20.832a443.936 443.936 0 0 0-0.384 19.264v25.632c0 5.472 1.216 11.168 3.616 17.024 0.736 0.384 3.488 1.568 10.144 1.568 9.376 0 16.064 0.128 21.088 0.416 4.32 0.256 11.072 0.384 20.608 0.384 2.784 0 4.768-0.192 6.144-0.384 0.608-3.936 1.216-10.528 1.216-21.376 0-13.088 0.128-24.384 0.416-34.56 0.256-9.824 0.384-23.136 0.384-40.768 0-14.432 1.504-25.824 4.64-34.912 5.056-14.368 17.344-22.624 33.696-22.624 6.176 0 15.04-0.128 25.6-0.384 8.096-0.192 15.36-0.32 21.408-0.384-5.376-7.936-11.84-17.408-19.52-28.608z"  horiz-adv-x="1024" />

    
    <glyph glyph-name="userstatistics" unicode="&#58943;" d="M511.264 801.28C280.736 801.28 93.856 614.4 93.856 383.904c0-230.56 186.88-417.408 417.408-417.408S928.64 153.34400000000005 928.64 383.904c0 230.528-186.88 417.376-417.376 417.376z m120.544-366.528l-44.288-93.696c-5.664-12.128-11.36-23.968-17.024-35.488s-10.784-22.048-15.328-31.52c-4.544-9.472-8.416-17.408-11.648-23.84s-5.408-10.4-6.528-11.936c-4.16-6.432-7.936-11.648-11.36-15.616s-9.088-5.408-17.056-4.256c-6.432 0.768-11.456 3.392-15.04 7.936l-11.648 14.752a649.248 649.248 0 0 0-28.96 44.32l-22.144 35.776-64.736-138.016-45.44 49.408a3656.032 3656.032 0 0 1 30.112 62.496l18.176 35.232c5.696 12.096 10.976 23.104 15.904 32.928s8.896 18.08 11.936 24.704c3.04 6.624 4.928 10.72 5.664 12.224 2.272 5.664 5.312 10.688 9.088 15.04s10.016 6.528 18.752 6.528c3.424 0 7.008-1.888 10.784-5.664a136.128 136.128 0 0 0 16.736-20.16c1.312-2.08 1.248-1.6-0.288 1.408l5.12-8.512c2.272-3.776 5.024-8.224 8.224-13.344s6.528-10.496 9.92-16.192c7.968-13.248 17.408-28.768 28.416-46.592l71.552 147.104-67.584 23.264 154.464 94.848 24.416-175.488-60.192 32.384z"  horiz-adv-x="1024" />

    
    <glyph glyph-name="hide" unicode="&#58944;" d="M812.544 688.192c-5.952 5.952-13.888 9.248-22.304 9.248s-16.352-3.296-22.304-9.248L186.432 106.68799999999999c-5.952-5.952-9.248-13.888-9.248-22.304s3.296-16.352 9.248-22.304c5.952-5.984 13.888-9.248 22.304-9.248s16.352 3.296 22.304 9.248L812.544 643.5840000000001a31.584 31.584 0 0 1 0 44.608z m-296.64-411.232a104.128 104.128 0 0 1 99.68 134.08l-129.664-129.664c9.504-2.848 19.552-4.416 29.984-4.416z m-104.032 104.096c0-5.312 0.416-10.496 1.152-15.584l118.496 118.496a104.064 104.064 0 0 1-119.648-102.912z m512.288 0.352v0.576l-0.416 1.728a425.696 425.696 0 0 1-122.976 212.512l-137.568-137.536a166.464 166.464 0 0 0-224.896-224.896l-133.472-133.472a424.192 424.192 0 0 1 206.496-53.312c196.96 0 362.656 133.632 411.52 315.168 0.352 1.056 0.64 2.176 0.896 3.36l0.416 1.536v0.704a46.528 46.528 0 0 1 0 13.696zM214.752 167.168l148.16 148.16a166.496 166.496 0 0 0 218.72 218.72l127.776 127.776a424.224 424.224 0 0 1-200.448 50.016c-199.072 0-366.272-136.512-413.088-321.056v-0.288a31.552 31.552 0 0 1-0.32-11.232v-0.064a23.616 23.616 0 0 1 0.96-4 425.44 425.44 0 0 1 118.24-208.032z"  horiz-adv-x="1024" />

    
    <glyph glyph-name="wxapp-pack" unicode="&#58945;" d="M493.12 799.168L95.904 640.608v-433.984l479.264-238.208 351.456 238.208V640.608L493.152 799.168z m0.992-69.056l368.576-134.848v-354.208l-292.48-198.208-410.432 203.936V596.64l334.336 133.472z m100.48-302.272a15.392 15.392 0 0 0-5.792 1.12L124.224 612.1279999999999c-8.224 3.232-12.288 12.608-9.088 20.928s12.48 12.416 20.672 9.184l464.576-183.168a16.224 16.224 0 0 0-5.792-31.232z m-19.456 23.424v-482.848l351.456 238.208V639.36l-351.456-188.064z m203.168 98.496l-74.688-40L290.144 672l83.648 36.48 404.512-158.688z m-362.912-195.52h31.936v-121.152l-31.936 12.32V354.24z m63.136-32.48l-47.232 94.72-48.16-62.848 95.424-31.872z m-190.944 81.6h31.936v-114.72l-31.936 12.32v102.432z m64.064-35.232l-48.128 93.024L256.224 400l95.456-31.872z m-96-80.192l223.648-106.688v-39.936l-223.648 106.72v39.936z"  horiz-adv-x="1024" />

    
    <glyph glyph-name="wxapp-setting" unicode="&#58946;" d="M454.304 412.512a29.696 29.696 0 0 1 29.696 29.696V770.912a29.664 29.664 0 0 1-29.696 29.696H125.6a29.696 29.696 0 0 1-29.696-29.696v-328.704c0-16.416 13.312-29.696 29.696-29.696h328.704z m0-443.552a29.696 29.696 0 0 1 29.696 29.696V327.36a29.664 29.664 0 0 1-29.696 29.696H125.6a29.696 29.696 0 0 1-29.696-29.696v-328.704c0-16.416 13.312-29.696 29.696-29.696h328.704z m279.2 443.552a194.048 194.048 0 1 1 0 388.096 194.048 194.048 0 0 1 0-388.096z m164.32-443.552a29.696 29.696 0 0 1 29.696 29.696V327.36a29.696 29.696 0 0 1-29.696 29.696H569.12a29.696 29.696 0 0 1-29.696-29.696v-328.704c0-16.416 13.312-29.696 29.696-29.696h328.704z"  horiz-adv-x="1024" />

    
    <glyph glyph-name="system-site" unicode="&#59806;" d="M357.6 360.70399999999995H176.608a323.008 323.008 0 0 1 113.92-225.312c25.312 17.728 53.152 31.648 82.272 43.04a1074.976 1074.976 0 0 0-15.2 182.272z m-31.648-251.904a270.784 270.784 0 0 1 69.632-32.928 473.856 473.856 0 0 0-15.2 60.768c-18.976-7.584-37.984-16.448-54.432-27.84z m177.216 497.44a297.92 297.92 0 0 1 68.352 7.584 949.44 949.44 0 0 1-26.592 91.136c-13.92 1.28-29.12 2.528-44.288 2.528h-2.528c-13.92 0-27.84-1.28-41.76-2.528-10.112-29.12-18.976-59.488-26.592-91.136 22.784-5.056 46.848-7.584 70.88-7.584h2.528z m172.16 49.376c-25.312 16.448-51.904 29.12-79.744 36.704 6.336-21.504 12.672-44.288 18.976-67.072a273.888 273.888 0 0 1 60.768 30.368z m-269.632 36.704c-27.84-7.584-54.432-20.256-79.744-36.704a271.168 271.168 0 0 1 60.768-30.368c6.336 22.784 12.672 45.568 18.976 67.072z m93.664-534.144c-26.592 0-51.904-2.528-75.936-8.864 5.056-30.368 12.672-59.488 21.504-87.328 17.728-3.808 36.704-5.056 55.68-5.056h2.528c17.728 1.28 35.456 2.528 54.432 5.056 7.584 27.84 15.2 56.96 21.504 87.328-24.064 5.056-50.624 8.864-77.216 8.864h-2.528z m-120.224 425.28a391.552 391.552 0 0 0-88.608 45.568 322.88 322.88 0 0 1-113.92-225.312h182.272c2.528 60.768 8.864 121.504 20.256 179.744z m332.896 45.568c-27.84-18.976-56.96-34.176-88.608-45.568 11.392-56.96 17.728-117.728 20.256-179.744h180.992a326.72 326.72 0 0 1-112.64 225.312z m-311.392-268.32c1.28-58.24 5.056-115.168 13.92-169.6a356.8 356.8 0 0 0 82.272 10.112c30.368 0 59.488-3.808 88.608-10.112 8.864 55.68 13.92 111.392 12.64 169.6h-197.472z m227.84-182.272c29.12-10.112 56.96-25.312 82.272-43.04a322.88 322.88 0 0 1 113.92 225.312h-180.992c0-62.016-5.056-124.032-15.2-182.272zM500 832.48c-248.32 0-449.632-201.312-449.632-449.632s201.312-449.632 449.632-449.632 449.632 201.312 449.632 449.632S748.32 832.48 500 832.48zM743.68 110.08000000000004l-34.176-26.592a366.496 366.496 0 0 0-118.976-55.68c-15.2-3.808-32.896-6.336-49.376-8.864-12.672-1.28-25.312-2.528-37.984-2.528h-2.528c-13.92 0-26.592 1.28-40.512 2.528-16.448 1.28-32.896 5.056-49.376 8.864-43.04 10.112-83.552 29.12-120.256 54.432-12.672 7.584-22.784 16.448-34.176 26.592l-12.672 12.64c-70.88 68.352-108.864 160.736-110.112 258.208s36.704 189.856 105.056 259.488l17.728 17.728 34.176 26.592c39.232 27.84 84.8 46.848 132.896 56.96a345.472 345.472 0 0 0 50.624 7.584c7.584 1.28 16.448 1.28 24.064 1.28h29.12c17.728-1.28 34.176-3.808 50.624-7.584 48.096-11.392 93.664-30.368 132.896-58.208 12.64-7.584 22.784-16.448 34.176-26.592l12.672-12.672c70.88-69.6 108.864-160.736 108.864-256.96 1.28-110.112-46.848-208.864-122.784-277.216z m-240.512 453.152h-2.528c-27.84 0-54.432 2.528-79.744 8.864a1224.96 1224.96 0 0 1-18.976-168.352h197.472a1203.36 1203.36 0 0 1-18.976 168.352 313.856 313.856 0 0 0-77.216-8.864z m102.528-488.608a392.672 392.672 0 0 1 69.6 32.896 315.488 315.488 0 0 1-54.432 27.84l-15.2-60.768z"  horiz-adv-x="1024" />

    
    <glyph glyph-name="apply" unicode="&#58948;" d="M905.024 647.168L516.896 800.192 129.664 647.168l388.128-161.184 387.264 161.184zM97.728 580.1600000000001v-344.96c0.096-13.216 2.176-26.368 6.176-38.976 4.16-13.28 10.112-25.92 17.728-37.568 7.808-11.904 17.024-22.848 27.456-32.576 10.464-9.824 22.432-17.92 35.456-24 36.032-15.68 71.904-31.36 107.648-47.072 32.096-14.08 64.128-28.256 96.128-42.56 33.088-15.072 64.992-29.6 95.712-43.456V415.36L97.696 580.1600000000001z m831.2 0l-387.232-164.768v-446.368c33.216 13.568 66.304 27.456 99.264 41.664 28.96 12.064 60.576 25.344 94.816 39.84l98.368 41.632c10.656 5.44 21.568 13.152 32.8 23.104 11.488 10.24 21.728 21.792 30.56 34.4a198.72 198.72 0 0 1 22.624 41.632c5.888 14.784 8.832 30.048 8.832 45.728V580.192z m0 0z"  horiz-adv-x="1024" />

    
    <glyph glyph-name="changing-over" unicode="&#58949;" d="M830.464 120.44799999999998l-65.504 94.848a315.328 315.328 0 0 0-41.408-49.6 303.072 303.072 0 0 0-211.392-85.728c-168.064 0-303.84 136.288-303.84 303.84h130.016L179.904 629.856a412.16 412.16 0 0 1-80.896-246.528c0-96.8 33.216-185.376 88.128-256.16l0.48-0.48a412.48 412.48 0 0 1 324.064-156.512c105.952 0 202.24 39.488 275.424 104.96 15.424 13.952 29.856 29.376 43.328 45.248z m93.92 263.392v27.456c-7.232 208.992-193.568 386.176-412.672 386.176a411.008 411.008 0 0 1-260.992-92.928c-16.384-12.992-31.296-27.456-45.248-42.848l65.472-93.888c12.992 16.864 27.456 31.776 43.328 45.728a299.648 299.648 0 0 0 197.92 73.664c158.432 0 288.928-121.344 302.4-276.384h-124.704l58.752-84.736 42.848-61.152v-0.48l70.304-101.12v0.48l1.44-2.4c40.928 64.512 61.152 140.608 61.152 222.464z"  horiz-adv-x="1024" />

    
    <glyph glyph-name="s-template" unicode="&#58950;" d="M188.32 340v307.2c0 40.448 23.232 63.936 63.68 63.936 152.992 0.096 456.512 0.064 609.536 0 40.96 0 64.256-23.584 64.256-64.704v-610.944c0-42.4-23.328-65.856-65.632-65.888H252.928c-41.056 0.064-64.608 23.424-64.64 64.288 0.064 102.048 0.096 204.064 0.096 306.112z m443.552-185.184h-40.896c-47.904 0-246.272 0.096-294.112-0.096-17.632-0.096-30.336-12.448-30.528-28.672-0.192-15.616 11.872-28.096 28.736-29.6 3.488-0.352 7.008-0.192 10.528-0.192 117.6 0 385.632 0 503.296 0.064 5.376 0 10.944 0.16 16.224 1.344 15.2 3.52 24 16.896 21.888 32.416-2.08 15.296-13.792 24.672-31.584 24.736-61.184 0.096-122.368 0.064-183.488 0.064z m-19.264 214.816c-54.432 0-259.392 0.096-313.824-0.064-15.552 0-25.92-6.624-30.496-18.752-7.712-20.64 7.264-39.68 31.52-39.68 78.208-0.096 306.816-0.064 385.024-0.064 30.336 0 60.672 0.096 91.008-0.064 13.792-0.064 24.384 5.376 30.016 18.112 8.8 19.744-5.6 40.288-28.736 40.384-54.848 0.32-109.664 0.096-164.512 0.096z m-19.904 214.752c-47.456 0-245.344 0.064-292.768-0.064-20.224-0.064-33.6-11.808-33.664-29.184 0-17.376 13.536-29.248 33.6-29.28 94.88-0.064 340.224 0 435.136 0 20.384 0 33.76 11.424 34.112 28.768 0.352 17.824-13.056 29.696-34.112 29.696-47.424 0.064-94.88 0.064-142.336 0.064zM800 740.704h-13.952c-149.056 0-415.2 0-564.32-0.064-42.944 0-66.464-23.488-66.464-66.272v-615.264c-29.088-3.2-56.512 22.24-58.432 53.088-0.192 3.488-0.096 7.04-0.096 10.528V733.568c-0.064 42.208 23.424 65.6 65.856 65.6 152.992 0 423.04 0.064 576.032-0.064 33.76 0 59.936-22.496 61.792-52.8 0.064-1.44-0.224-2.944-0.416-5.664z"  horiz-adv-x="1024" />

    
    <glyph glyph-name="site-setting" unicode="&#58951;" d="M862.208-31.903999999999996h-192.544a64.224 64.224 0 0 0-64.192 64.192v126.88c0 35.424 28.736 64.192 64.192 64.192h64.192v127.584H290.24v-127.584h64.16c35.424 0 64.16-28.736 64.16-64.192v-126.88a64.192 64.192 0 0 0-64.16-64.192H161.856a64.192 64.192 0 0 0-64.16 64.192v126.88c0 35.424 28.736 64.192 64.16 64.192h64.192v159.296 0.192c0 17.664 14.304 31.904 31.904 31.904h222.016V542.4h-64.16a64.16 64.16 0 0 0-64.192 64.192V733.408c0 35.488 28.736 64.192 64.192 64.192h192.544c35.424 0 64.192-28.704 64.192-64.192v-126.816a64.16 64.16 0 0 0-64.192-64.192h-64.192v-127.648h222.016c17.6 0 31.904-14.24 31.904-31.904v-159.488h64.16c35.424 0 64.192-28.736 64.192-64.192v-126.88a64.192 64.192 0 0 0-64.192-64.192z"  horiz-adv-x="1024" />

    
    <glyph glyph-name="clock" unicode="&#58952;" d="M747.2 384.256c15.296 0 27.616-12.512 27.616-27.808a27.776 27.776 0 0 0-27.616-28h-238.368a27.296 27.296 0 0 0-20.896 9.888 26.656 26.656 0 0 0-6.72 17.536v0.192 0.192 280c0 15.296 12.512 27.616 28 27.616s28-12.32 28-27.616v-252h209.984z m0 0zM509.184 831.488c-246.944 0-447.232-200.288-447.232-447.232s200.288-447.232 447.232-447.232c246.944 0 447.232 200.288 447.232 447.232S756.128 831.488 509.184 831.488z m0-838.688c-216.16 0-391.424 175.264-391.424 391.232 0 216.16 175.264 391.424 391.424 391.424s391.232-175.264 391.232-391.424c0.192-215.968-175.072-391.232-391.232-391.232z m0 0z"  horiz-adv-x="1024" />

    
    <glyph glyph-name="advertisement" unicode="&#58953;" d="M808.288 498.336c-52 177.888-147.904 317.92-203.968 297.984-95.264-33.984 34.496-246.016-433.28-412.672-40.416-14.464-56.16-84.192-43.392-127.84 12.736-43.52 62.464-90.016 102.912-75.648a752.992 752.992 0 0 0 32.48 9.344c24.32-43.968 55.488-21.728 63.616-49.024l38.144-128.416c7.2-24.224 26.208-47.712 41.824-42.56l88.992 29.248c20.32 6.688 26.592 25.856 21.888 41.664-5.056 17.152-31.168 24.224-37.12 44.192-5.952 19.904-25.44 83.968-30.912 104.096-7.424 27.36 14.88 47.296 44.992 48.224 207.168 6.784 233.728-137.792 306.24-111.936 56 20.032 59.616 195.552 7.616 373.312z m-46.432-277.504c-12.48-4.384-87.296 73.312-127.68 211.584-40.416 138.176-23.712 260-11.264 264.48 12.448 4.384 84.064-87.872 124.448-226.048 40.416-138.176 26.944-245.536 14.496-250.016z"  horiz-adv-x="1024" />

    
    <glyph glyph-name="remove" unicode="&#58954;" d="M733.792 342.11199999999997h-246.944c-3.2 0.608-19.296 4.928-19.296 31.104v29.056c0 4.064 1.28 23.84 27.488 25.824h238.72v76.256l192.256-116.48-192.256-112.48V342.08000000000004z m-216.128-376.32c-94.88 3.904-176 27.104-241.152 68.96-52 33.408-94.08 78.784-125.12 134.88C98.368 265.472 96 360.096 95.968 361.05600000000004c-0.544 99.264 22.048 184.16 67.104 252.256 35.968 54.368 86.4 98.304 149.856 130.656 108.608 55.36 218.688 57.44 219.776 57.472 150.656 0 264.544-106.656 272.352-114.176 28.448-36.928 6.432-64.64 2.4-69.152-9.568-6.4-18.816-9.664-27.488-9.664-21.088 0-33.44 19.104-33.568 19.296-54.4 87.776-178.016 97.28-228.608 97.28-12.128 0-19.456-0.544-19.776-0.576l-0.704-0.064-0.704-0.16c-192.192-43.136-270.208-141.024-301.792-215.52-33.632-79.36-23.328-148.096-22.432-153.696 19.2-160.608 106.592-237.216 176.544-273.216 78.272-40.288 155.52-41.44 164.064-41.44h0.768c6.24-0.544 12.576-0.832 18.88-0.832h0.032c110.624 0 196.704 81.856 200.32 85.344l0.288 0.288 0.256 0.288c14.944 16.928 30.848 25.536 47.232 25.536a48 48 0 0 0 25.184-7.2c9.056-9.632 13.184-19.616 12.672-30.496-1.088-22.784-22.848-42.048-23.072-42.24-114.72-100.544-271.36-105.12-277.952-105.248z"  horiz-adv-x="1024" />

    
    <glyph glyph-name="disabled" unicode="&#58955;" d="M812.544 688.192c-5.952 5.952-13.888 9.248-22.304 9.248s-16.352-3.296-22.304-9.248L186.432 106.68799999999999c-5.952-5.952-9.248-13.888-9.248-22.304s3.296-16.352 9.248-22.304c5.952-5.984 13.888-9.248 22.304-9.248s16.352 3.296 22.304 9.248L812.544 643.5840000000001a31.584 31.584 0 0 1 0 44.608z m-296.64-411.232a104.128 104.128 0 0 1 99.68 134.08l-129.664-129.664c9.504-2.848 19.552-4.416 29.984-4.416z m-104.032 104.096c0-5.312 0.416-10.496 1.152-15.584l118.496 118.496a104.064 104.064 0 0 1-119.648-102.912z m512.288 0.352v0.576l-0.416 1.728a425.696 425.696 0 0 1-122.976 212.512l-137.568-137.536a166.464 166.464 0 0 0-224.896-224.896l-133.472-133.472a424.192 424.192 0 0 1 206.496-53.312c196.96 0 362.656 133.632 411.52 315.168 0.352 1.056 0.64 2.176 0.896 3.36l0.416 1.536v0.704a46.528 46.528 0 0 1 0 13.696zM214.752 167.168l148.16 148.16a166.496 166.496 0 0 0 218.72 218.72l127.776 127.776a424.224 424.224 0 0 1-200.448 50.016c-199.072 0-366.272-136.512-413.088-321.056v-0.288a31.552 31.552 0 0 1-0.32-11.232v-0.064a23.616 23.616 0 0 1 0.96-4 425.44 425.44 0 0 1 118.24-208.032z"  horiz-adv-x="1024" />

    
    <glyph glyph-name="iphone" unicode="&#58956;" d="M469.728 78.20799999999997c0 25.504 19.872 46.4 44.384 46.4s44.384-20.864 44.384-46.4c0-25.824-19.872-46.688-44.384-46.688s-44.384 20.864-44.384 46.688z m-138.784 661.12h366.304c21.536 0 39.104-18.24 39.104-41.056v-458.08c0-22.848-17.568-41.056-39.104-41.056H330.944c-21.536 0-39.104 18.176-39.104 41.056V698.2719999999999c0 22.848 17.568 41.056 39.104 41.056zM203.104 12.991999999999962c0-41.056 31.808-74.528 71.2-74.528H754.24c39.104 0 70.88 33.44 70.88 74.528V757.856c0 41.088-31.808 74.528-70.88 74.528H274.304c-39.392 0-71.2-33.44-71.2-74.528v-744.864z"  horiz-adv-x="1024" />

    
    <glyph glyph-name="plus" unicode="&#58957;" d="M460.448 437.76H149.504c-28.832 0-51.872-23.2-51.872-51.84 0-28.832 23.232-51.84 51.872-51.84h310.944v-310.944c0-28.832 23.2-51.872 51.84-51.872 28.832 0 51.84 23.232 51.84 51.872V334.08000000000004h310.944c28.832 0 51.872 23.2 51.872 51.84 0 28.832-23.232 51.84-51.872 51.84h-310.944V748.704c0 28.832-23.2 51.872-51.84 51.872-28.832 0-51.84-23.232-51.84-51.872v-310.944z"  horiz-adv-x="1024" />

    
    <glyph glyph-name="version-switch" unicode="&#58958;" d="M958.848 384.992c0 246.816-200.096 446.912-446.944 446.912S64.96 631.808 64.96 384.992c0-246.848 200.096-446.912 446.944-446.912s446.944 200.096 446.944 446.912z m-383.264-205.216c-66.016-70.592-149.472-93.056-159.456-39.968-7.52 40.032 31.968 185.184 39.872 239.84 2.592 17.856-19.936 0-19.936 0s-64.8-45.632-79.712-20c-2.4 4.064 13.6 16.608 19.936 20 0 0 135.168 99.296 179.392 79.936s-15.584-141.792-19.936-159.904c-4.352-18.112-32.384-156.768 59.776-79.968 0 0 46.08 30.624-19.936-39.968zM541.856 519.6800000000001c-38.464 2.112-67.968 35.104-65.856 73.664s35.008 68.128 73.472 66.048c38.464-2.112 67.968-35.104 65.856-73.664s-34.976-68.128-73.472-66.048z"  horiz-adv-x="1024" />

    
    <glyph glyph-name="diagnose" unicode="&#58959;" d="M818.848 666.24h-63.712V733.504c0 37.088-31.04 67.264-69.152 67.264H333.952c-38.176 0-69.216-30.176-69.216-67.264V666.24H201.024c-59.2 0-107.36-47.296-107.36-105.408v-485.792c0-58.112 48.16-105.408 107.36-105.408h617.792c59.2 0 107.36 47.296 107.36 105.408V560.832c0 58.112-48.16 105.408-107.328 105.408z m-132.512-403.68h-132.288v-129.312h-88.192v129.312h-132.288v86.208h132.288V478.08h88.192v-129.312h132.288v-86.208z m19.392 403.68H313.984l0.224 24.192c0 34.176 28.416 61.984 63.328 61.984h264.832c34.912 0 63.328-27.808 63.328-61.984v-24.192z"  horiz-adv-x="1024" />

    
    <glyph glyph-name="setting" unicode="&#58960;" d="M364.384-33.24800000000005c-23.776 0-43.104 19.328-43.104 43.072s19.328 43.104 43.104 43.104h31.712v63.424H214.784a118.048 118.048 0 0 0-117.888 117.888V683.104a118.048 118.048 0 0 0 117.888 117.888h573.536a118.048 118.048 0 0 0 117.888-117.888V234.24a118.016 118.016 0 0 0-117.888-117.888h-156.384v-63.424h31.712a43.104 43.104 0 0 0 0-86.176h-299.232z m-181.344 267.52c0-17.472 14.208-31.712 31.712-31.712h573.536a31.744 31.744 0 0 1 31.744 31.712v31.744H183.072v-31.744z"  horiz-adv-x="1024" />

    
    <glyph glyph-name="wechat" unicode="&#58961;" d="M671.008 539.36c-36.224 104.992-151.136 178.816-283.68 178.816-162.912 0-295.424-111.392-295.424-248.32 0-76.992 41.536-148.384 114.016-195.904l13.056-8.544-19.904-58.72 66.848 36.672 8.48-2.944a342.72 342.72 0 0 1 110.112-18.848 229.056 229.056 0 0 0-6.656 54.816c0 141.248 130.304 256.864 293.216 263.008z m-183.232 75.712a49.664 49.664 0 1 0 0-99.328 49.664 49.664 0 0 0 0 99.328z m-237.184-99.328a49.664 49.664 0 1 0 0 99.328 49.664 49.664 0 0 0 0-99.328z m680.352-239.392c0 113.472-110.496 205.76-246.304 205.76s-246.304-92.32-246.304-205.76c0-113.472 110.496-205.76 246.304-205.76a289.92 289.92 0 0 1 82.432 11.84l8.064 2.4 53.056-29.088-15.104 44.512 14.048 8.352c64.992 38.656 103.808 101.376 103.808 167.776z m-361.856-6.656a49.664 49.664 0 1 0 0 99.328 49.664 49.664 0 0 0 0-99.328z m237.184 0a49.664 49.664 0 1 0 0 99.328 49.664 49.664 0 0 0 0-99.328z"  horiz-adv-x="1024" />

    
    <glyph glyph-name="exploitsetting" unicode="&#58962;" d="M511.232 801.568c-230.304 0-417.664-187.36-417.664-417.664s187.36-417.664 417.664-417.664c230.304 0 417.664 187.36 417.664 417.664S741.536 801.568 511.232 801.568z m281.248-513.312l-9.952 0.512a1764.416 1764.416 0 0 1-94.368 2.304h-131.648v-96.928c0-34.24 0.768-66.784 2.336-96.64l0.48-10.016h-73.152l0.48 10.016c1.536 30.688 2.304 63.2 2.304 96.64v96.928h-159.392c-21.856 0-45.024-0.768-68.8-2.304l-10.08-0.576v64.096l10.08-0.576c25.184-1.536 49.888-2.336 73.44-2.336h154.784v200.832h-99.264c-23.456 0-50.56-0.768-82.816-2.304l-9.92-0.448V611.264l9.92-0.448c33.152-1.568 59.52-2.304 80.512-2.304h256.8c21.792 0 48.864 0.736 85.184 2.304l9.888 0.448v-63.808l-9.92 0.448a1977.856 1977.856 0 0 1-49.952 1.856l-3.52 0.096 0.032 0.032-2.976 0.064a1508.8 1508.8 0 0 1-28.736 0.256h-87.68v-200.832h131.648c32.544 0 64.32 0.768 94.368 2.336l9.952 0.512v-63.936zM308.736 498.688l8.192 6.144c11.84 8.864 23.776 18.56 36.512 29.632l7.296 6.368 6.208-7.488c38.816-46.592 70.144-88.16 93.152-123.488l4.864-7.392-7.072-5.312c-18.72-14.048-32.96-25.28-43.488-34.336l-9.216-7.904-5.44 10.88a588.384 588.384 0 0 1-84.224 125.248l-6.784 7.712zM675.2 548.384l9.152-6.4c15.072-10.496 30.24-19.584 45.056-27.008l9.44-4.736-5.664-8.896c-38.496-60-71.328-107.68-97.664-141.792l-6.176-7.968-7.552 6.656a219.744 219.744 0 0 1-37.728 26.56l-9.888 5.568 7.2 8.832a702.56 702.56 0 0 1 89.056 139.2l4.8 10.016z"  horiz-adv-x="1024" />

    
    <glyph glyph-name="sql" unicode="&#58963;" d="M212.416 532.1279999999999c79.776-30.976 186.048-48.032 299.232-48.032 231.52 0 419.872 71.456 419.872 159.264s-188.352 159.264-419.872 159.264S91.776 731.168 91.776 643.36c0-41.536 42.848-81.024 120.608-111.232z m299.232-107.104c-196.128 0-368.544 52.672-419.872 126.688v-80.832c0-87.808 188.352-159.264 419.872-159.264s419.872 71.456 419.872 159.264v80.832c-51.328-74.016-223.744-126.688-419.872-126.688z m0-172.512c-196.128 0-368.544 52.672-419.872 126.688v-80.832c0-87.808 188.352-159.264 419.872-159.264S931.52 210.55999999999995 931.52 298.36800000000005V379.20000000000005c-51.328-74.016-223.744-126.688-419.872-126.688z m0-172.544c-196.128 0-368.544 52.672-419.872 126.72v-80.832c0-87.808 188.352-159.264 419.872-159.264s419.872 71.456 419.872 159.264v80.832c-51.328-74.016-223.744-126.72-419.872-126.72z"  horiz-adv-x="1024" />

    
    <glyph glyph-name="log" unicode="&#58964;" d="M837.92 58.72000000000003H189.632c-57.216 0-92.64 15.008-92.64 71.872v-37.856c0-56.928 23.52-126.656 80.672-126.656H850.24c56.8 0 80.32 69.728 80.32 126.656v37.856c0-56.8-35.776-71.872-92.64-71.872z m12.32 740.928h-71.2v-81.728a76.96 76.96 0 1 0-59.36-0.096V799.648l-411.616-0.16-0.096-81.6a76.992 76.992 0 1 0-59.52 0.16V799.6800000000001H177.6c-57.088 0-80.608-23.456-80.608-80.32v-508.8c0-56.8 35.424-92.928 92.64-92.928h648.352c56.864 0 92.64 36.16 92.64 92.928V719.36c-0.064 56.864-23.584 80.32-80.384 80.32z"  horiz-adv-x="1024" />

    
    <glyph glyph-name="safety" unicode="&#58965;" d="M511.776-32.57600000000002C472.608-17.888000000000034 159.36 105.69600000000003 159.36 305.376V674.72l352.416 125.248 352.416-125.248v-369.344c0-199.808-313.216-323.296-352.416-337.952z m0 711.712c-154.976 0-281.056-126.08-281.056-281.056s126.08-281.056 281.056-281.056 281.056 126.08 281.056 281.056-126.08 281.056-281.056 281.056z m-29.12-501.664V234.88c-66.912 11.584-121.664 66.4-133.952 134.08H291.136c12.224-99.232 92.256-179.296 191.52-191.488z m58.208 57.408v-57.408c98.464 12.224 178.432 92.256 191.392 191.488h-57.28c-11.584-67.712-66.4-122.496-134.08-134.08z m-58.208 59.52v74.56h-74.56a107.072 107.072 0 0 1 74.56-74.56z m58.208 74.56v-74.56a106.944 106.944 0 0 1 74.56 74.56h-74.56z m133.952 58.24h57.536c-12.224 98.464-92.256 178.432-191.488 191.392v-57.312c66.912-11.584 121.664-66.368 133.952-134.08z m-133.952 0h74.56a106.944 106.944 0 0 1-74.56 74.56v-74.56z m-132.768 0h74.56v74.56a106.944 106.944 0 0 1-74.56-74.56z m-116.832 0h57.28c11.584 67.68 66.4 122.496 134.08 134.08V618.688c-98.464-12.224-178.432-92.256-191.392-191.488z"  horiz-adv-x="1024" />

    
    <glyph glyph-name="optimize" unicode="&#58966;" d="M750.304 256.76800000000003c20.512 285.088-105.76 465.76-232.16 539.264l-7.328 4.352-7.392-4.352c-126.336-73.504-254.176-254.176-232.096-539.2-63.104-60.256-91.008-132.256-91.008-232.192v-17.6l202.752 39.68c13.184-45.504 66.08-79.328 127.84-79.328 61.696 0 114.592 33.76 127.776 77.856l204.256-41.152v17.6c0 102.848-27.904 174.848-92.576 235.104z m-239.424 112.448a76.96 76.96 0 1 0 0 153.92 76.96 76.96 0 0 0 0-153.92z"  horiz-adv-x="1024" />

    
    <glyph glyph-name="adgroup" unicode="&#58967;" d="M512.256 769.888c-229.824 0-416.16-186.336-416.16-416.16 0-229.888 186.336-416.224 416.16-416.224 229.856 0 416.192 186.336 416.192 416.224 0 229.824-186.336 416.16-416.192 416.16z m-34.88-476.192v-102.56s-1.472-14.752-14.016-16.256h-50.176s-10.336 2.24-13.28 13.28v105.504s-94.432 14.048-67.872 111.424c0 0 11.808 41.344 64.928 55.328h115.648l0.224-166.784h-35.424z m199.648-53.856c-3.712-25.056-22.88-16.256-22.88-16.256l-81.184 53.152v197.024l82.624 58.304c18.464 3.68 21.44-16.992 21.44-16.992v-275.232z"  horiz-adv-x="1024" />

    
    <glyph glyph-name="attachment" unicode="&#58968;" d="M511.232 801.568C281.152 801.568 93.984 614.4 93.984 384.32s187.2-417.248 417.248-417.248c230.08 0 417.248 187.168 417.248 417.248S741.312 801.568 511.232 801.568z m166.944-446.4l-0.704-0.704-137.056-131.68a140.064 140.064 0 0 0-101.376-42.784c-77.024 0-139.712 60.544-139.712 134.944 0 36.992 16.256 72.672 44.672 98.24l-0.192 0.192 57.152 54.72 0.96 1.344c0.48 0.48 0.992 0.864 1.536 1.28 0.32 0.224 0.64 0.448 0.896 0.704l3.36 3.232 0.32-0.288a86.24 86.24 0 0 0 53.92 19.2c46.656 0 84.608-36.672 84.608-81.76l0.064-3.296c0.256-10.24 0.64-27.392-11.488-40.512l-67.776-65.6-0.32 0.32a29.312 29.312 0 0 0-18.08-6.304c-16.256 0-29.472 12.8-29.472 28.512 0 6.272 2.24 12.288 6.496 17.472l-0.128 0.096 1.184 1.568 55.584 53.92a23.456 23.456 0 0 1 4.928 13.76c0 13.6-11.52 24.704-25.664 24.704a25.92 25.92 0 0 1-16.992-6.592l-56.64-54.176 0.352-0.352-1.664-1.376a76.448 76.448 0 0 1-28.704-59.04c0-42.976 36.224-77.92 80.768-77.92 23.456 0 45.792 10.112 61.28 27.776l135.104 129.728c18.368 15.04 28.8 36.576 28.8 59.168 0 42.976-36.224 77.92-80.768 77.92-18.592 0-36.224-6.272-51.04-18.176l-1.088-0.864-0.192 0.128a29.312 29.312 0 0 0-17.504-6.048c-16.256 0-29.472 12.8-29.472 28.512 0 7.2 2.784 13.984 7.904 19.296l-0.096 0.128 1.216 1.44a141.44 141.44 0 0 0 90.176 32.672c77.024 0 139.712-60.544 139.712-134.944 0-37.504-15.936-72.448-44.96-98.56z"  horiz-adv-x="1024" />

    
    <glyph glyph-name="wechatstatistics" unicode="&#58969;" d="M930.4 403.68c0 202.432-187.456 366.56-418.624 366.56S93.12 606.144 93.12 403.68c0-202.432 187.456-366.528 418.656-366.528 62.432 0 121.44 12.32 174.688 33.792l121.856-69.024c3.648-2.048 8.256-1.792 11.68 1.024s4.672 7.328 3.488 11.36l-34.176 115.52c86.368 67.168 141.12 164.8 141.12 273.888z m-567.392-34.304a76.96 76.96 0 1 0 0 153.92 76.96 76.96 0 0 0 0-153.92z m298.272 1.696a76.96 76.96 0 1 0 0 153.92 76.96 76.96 0 0 0 0-153.92z"  horiz-adv-x="1024" />

    
    <glyph glyph-name="img" unicode="&#58970;" d="M885.312 800.288H134.08c-23.04 0-41.728-18.688-41.728-41.76v-745.248c0-23.04 18.688-41.696 41.728-41.696h751.232c23.04 0 41.728 18.656 41.728 41.696V758.528c0 23.072-18.688 41.728-41.728 41.728z m-83.456-703.52H217.568v208.64l125.216 125.216 208.672-208.672 125.216 125.216 125.184-125.216v-125.184zM718.4 430.624a83.456 83.456 0 1 0 0 166.912 83.456 83.456 0 0 0 0-166.912z"  horiz-adv-x="1024" />

    
    <glyph glyph-name="text" unicode="&#58971;" d="M916.96 662.208l-123.904 126.496a31.136 31.136 0 0 1-43.648 0.608l-90.048-86.56 169.568-170.336 87.616 86.304a30.72 30.72 0 0 1 0.416 43.488zM206.88 248.67200000000003c-13.28-13.664-21.76-22.336-25.376-25.952-8.448-8.512-14.944-16.256-19.488-23.232s-8.608-14.72-12.256-23.232c-3.04-5.472-6.944-15.488-11.776-30.08s-9.824-30.496-14.944-47.808c-5.12-17.312-9.952-34.016-14.496-50.112s-7.392-28.384-8.608-36.896c-2.432-15.776-0.896-27.008 4.544-33.696s16.32-9.12 32.64-7.296c7.84 1.216 19.808 3.936 35.808 8.192s32.96 9.28 50.784 15.04c17.824 5.792 34.912 11.712 51.232 17.76s28.736 11.232 37.184 15.488c8.448 3.648 16.64 8.48 24.48 14.56s14.816 11.84 20.864 17.312c2.432 1.824 9.984 9.088 22.688 21.856s28.704 28.992 48.064 48.736 41.12 41.44 65.28 65.152l72.544 73.792 194.944 195.84-169.568 171.264L256.832 299.23199999999997c-19.936-20.032-36.576-36.896-49.888-50.56z"  horiz-adv-x="1024" />

    
    <glyph glyph-name="radio" unicode="&#58972;" d="M460.032-34.01599999999996h103.424c16.896 0 30.624 13.76 30.624 30.624s-13.728 30.624-30.624 30.624h-21.088v43.744a299.776 299.776 0 0 1 166.976 74.336c47.776 42.688 80.256 99.744 91.456 160.672l1.056 5.632h-61.248l-0.832-3.712c-23.328-102.72-119.232-177.248-228-177.248s-204.704 74.528-228 177.248l-0.832 3.712H221.696l1.024-5.632c11.2-60.928 43.68-117.984 91.488-160.672a300 300 0 0 1 166.976-74.336v-43.744h-21.088a30.656 30.656 0 0 1 0-61.248z m51.744 206.816a185.92 185.92 0 0 1 185.728 185.728V617.056c0 102.432-83.328 185.76-185.728 185.76s-185.76-83.328-185.76-185.76v-258.528a185.92 185.92 0 0 1 185.76-185.728z"  horiz-adv-x="1024" />

    
    <glyph glyph-name="video" unicode="&#58973;" d="M913.632 619.392c-19.36 12.544-164.288-57.6-164.288-57.6v7.328c0 61.216-49.92 110.816-111.52 110.816H208.192c-61.6 0-111.52-49.6-111.52-110.816v-372.544c0-61.184 49.92-110.816 111.52-110.816h429.632c61.6 0 111.52 49.6 111.52 110.816v9.088s145.824-69.536 164.288-57.6 19.36 458.816 0 471.328zM333.408 204.76800000000003V561.856l282.784-178.528-282.784-178.56z"  horiz-adv-x="1024" />

    
    <glyph glyph-name="navigation" unicode="&#58974;" d="M512.288-35.072c-231.296 0-419.456 188.16-419.456 419.456S280.992 803.84 512.288 803.84c231.296 0 419.456-188.16 419.456-419.456s-188.16-419.456-419.456-419.456z m238.4 564.928a26.08 26.08 0 0 1-3.136-0.16l-279.104-27.936c-0.768-0.064-1.44-0.224-2.08-0.352a39.872 39.872 0 0 1-5.888-1.568 44.48 44.48 0 0 1-5.216-2.464 27.68 27.68 0 0 1-3.232-2.208l-1.312-1.056a22.272 22.272 0 0 1-1.888-1.568l-198.432-198.368a31.776 31.776 0 0 1-2.24-42.496c0.608-0.8 1.152-1.504 1.76-2.176l0.448-0.48 0.288-0.288a32.288 32.288 0 0 1 26.08-9.664l279.104 27.648a13.312 13.312 0 0 1 2.304 0.416 23.552 23.552 0 0 1 5.664 1.536c0.736 0.224 1.696 0.64 2.592 1.088s1.792 0.896 2.592 1.376a28.064 28.064 0 0 1 3.264 2.208l1.376 1.12a16.736 16.736 0 0 1 1.92 1.6l198.496 198.048c11.104 11.072 12.384 28.96 3.008 41.6a32 32 0 0 1-26.432 14.112z m-288.544-114.336l-104.256-104.192 146.752 14.528-42.496 89.696z m57.824 27.232l42.464-89.6 104.48 104.256-146.944-14.688z"  horiz-adv-x="1024" />

    
    <glyph glyph-name="show" unicode="&#58975;" d="M518.56 492.352a103.744 103.744 0 1 1 0.064-207.488 103.744 103.744 0 0 1-0.064 207.488z m406.944-103.392v0.544l-0.416 1.696a32.576 32.576 0 0 1-0.448 1.888c-44.832 186.56-212.704 325.216-412.992 325.216-198.432 0-365.088-136.064-411.744-320v-0.288a31.488 31.488 0 0 1-0.32-11.2v-0.032a28.224 28.224 0 0 1 0.928-4c44.096-187.552 212.48-327.2 413.472-327.2 196.32 0 361.504 133.184 410.208 314.144 0.352 1.056 0.64 2.176 0.896 3.36l0.416 1.504v0.736a46.08 46.08 0 0 1 0 13.632z m-406.944-166.336a165.984 165.984 0 1 0 0 332 165.984 165.984 0 0 0 0-332z"  horiz-adv-x="1024" />

    
    <glyph glyph-name="compose" unicode="&#58976;" d="M775.424 800.16c24.928 0 46.976-4.32 66.176-12.928s35.168-20.128 47.936-34.528c12.768-14.4 22.368-31.008 28.768-49.856s9.6-38.816 9.6-59.936v-548.48c0-17.248-3.36-33.568-10.08-48.896s-16-28.768-27.808-40.256c-11.808-11.52-25.408-20.608-40.736-27.328s-31.648-10.08-48.896-10.08h-550.4c-47.936 0-85.824 12.608-113.632 37.888s-41.696 64.384-41.696 117.44V646.752c0 18.528 3.2 37.088 9.6 55.616s15.968 35.008 28.768 49.376c12.768 14.4 28.768 26.048 47.936 35.008s41.536 13.44 67.136 13.44h527.36zM210.656 586.304c0-7.008 1.28-12.448 3.84-16.288s6.24-6.4 11.008-7.68c4.8-1.28 10.4-1.92 16.768-1.92h537.92c6.4 0 12 0.64 16.768 1.92s8.48 3.84 11.04 7.68c2.56 3.84 3.84 9.28 3.84 16.288V633.28c0 14.08-4.96 26.048-14.848 35.968s-22.208 14.848-36.928 14.848H262.4c-14.72 0-27.008-2.72-36.928-8.16s-14.848-15.488-14.848-30.208v-59.456zM785.952 384c7.04 0 13.12 2.4 18.24 7.2s7.68 10.72 7.68 17.76v11.488c0 7.04-2.56 12.96-7.68 17.728s-11.2 7.2-18.24 7.2h-133.28c-7.04 0-13.12-2.4-18.208-7.2s-7.68-10.72-7.68-17.728v-11.488c0-7.04 2.56-12.928 7.68-17.76s11.2-7.2 18.208-7.2h133.28z m23.968-84.384c0 7.04-2.56 13.088-7.68 18.208s-11.2 7.648-18.208 7.648h-182.176c-7.04 0-13.12-2.56-18.208-7.648s-7.68-11.2-7.68-18.208v-8.64c0-7.04 2.56-13.088 7.68-18.208s11.168-7.68 18.208-7.68h182.176c7.04 0 13.088 2.56 18.208 7.68s7.68 11.2 7.68 18.208v8.64zM453.248 388.8c0 14.08-4.96 26.048-14.88 35.968s-22.208 14.848-36.928 14.848H264.32c-14.08 0-26.048-4.96-35.968-14.848s-14.848-21.888-14.848-35.968v-252.192c0-14.048 4.96-26.048 14.848-35.936s21.888-14.88 35.968-14.88h137.12c14.72 0 27.008 4.96 36.928 14.88s14.88 21.888 14.88 35.936V388.8z m360.512-207.104c0 7.04-2.56 13.088-7.68 18.208s-11.168 7.68-18.208 7.68h-190.816c-7.04 0-13.12-2.56-18.208-7.68s-7.68-11.2-7.68-18.208v-12.48c0-7.04 2.56-13.088 7.68-18.208s11.2-7.68 18.208-7.68h190.816c7.04 0 13.088 2.56 18.208 7.68s7.68 11.2 7.68 18.208v12.48z"  horiz-adv-x="1024" />

    
    <glyph glyph-name="template" unicode="&#58977;" d="M554.72-11.903999999999996h326.848c27.712 0 50.272 22.56 50.272 50.272V406.08c0 27.712-22.56 50.272-50.272 50.272H554.72c-27.712 0-50.272-22.56-50.272-50.272v-367.712c0-27.712 22.56-50.272 50.272-50.272z m-408.576 0h245.12c27.712 0 50.272 22.56 50.272 50.272v163.424c0 27.712-22.56 50.272-50.272 50.272h-245.12c-27.712 0-50.272-22.56-50.272-50.272v-163.424c0-27.712 22.528-50.272 50.272-50.272z m0 326.848h245.12c27.712 0 50.272 22.56 50.272 50.272V732.928c0 27.712-22.56 50.272-50.272 50.272h-245.12c-27.712 0-50.272-22.56-50.272-50.272v-367.712c0-27.712 22.528-50.272 50.272-50.272z m408.576 204.288h326.848c27.712 0 50.272 22.56 50.272 50.272V732.928c0 27.712-22.56 50.272-50.272 50.272H554.72c-27.712 0-50.272-22.56-50.272-50.272v-163.424c0-27.712 22.56-50.272 50.272-50.272z"  horiz-adv-x="1024" />

    
    <glyph glyph-name="introduction" unicode="&#58978;" d="M825.408 801.6320000000001H198.016c-57.312 0-104.512-51.456-104.512-108.896v-623.712a103.904 103.904 0 0 1 103.872-103.936h623.296c57.376 0 109.376 47.136 109.376 104.576V697.056a105.12 105.12 0 0 1-104.64 104.576z m-104.576-575.104H302.624a26.144 26.144 0 0 0 0 52.288h418.272a26.144 26.144 0 1 0-0.064-52.288z m0 156.832H302.624a26.112 26.112 0 1 0 0 52.288h418.272a26.144 26.144 0 1 0-0.064-52.288z m0 156.864H302.624a26.144 26.144 0 0 0 0 52.288h418.272a26.144 26.144 0 1 0-0.064-52.288z"  horiz-adv-x="1024" />

    
    </font>
</defs>
</svg>
