<?xml version="1.0" encoding="UTF-8"?>
<svg width="96px" height="96px" viewBox="0 0 96 96" version="1.1" xmlns="http://www.w3.org/2000/svg" xmlns:xlink="http://www.w3.org/1999/xlink">
    <!-- Generator: Sketch 44.1 (41455) - http://www.bohemiancoding.com/sketch -->
    <title>关闭商品详情</title>
    <desc>Created with Sketch.</desc>
    <defs>
        <circle id="path-1" cx="44" cy="44" r="44"></circle>
    </defs>
    <g id="点餐页" stroke="none" stroke-width="1" fill="none" fill-rule="evenodd">
        <g id="商品浮层-" transform="translate(-618.000000, -164.000000)">
            <g id="关闭商品详情" transform="translate(622.000000, 168.000000)">
                <g id="Oval" opacity="0.6">
                    <use fill="#000000" fill-rule="evenodd" xlink:href="#path-1"></use>
                    <circle stroke="#FFFFFF" stroke-width="4" cx="44" cy="44" r="46"></circle>
                </g>
                <path d="M43.627417,40.9355729 L25.2400296,22.5481855 C24.4610971,21.7692529 23.1952621,21.769748 22.4142136,22.5507966 C21.6277197,23.3372905 21.631996,24.5970061 22.4116025,25.3766126 L40.7989899,43.764 L22.4116025,62.1513874 C21.6326699,62.9303199 21.633165,64.1961549 22.4142136,64.9772034 C23.2007075,65.7636973 24.4604231,65.759421 25.2400296,64.9798145 L43.627417,46.5924271 L62.0148044,64.9798145 C62.7937369,65.7587471 64.0595719,65.758252 64.8406204,64.9772034 C65.6271143,64.1907095 65.622838,62.9309939 64.8432315,62.1513874 L46.4558441,43.764 L64.8432315,25.3766126 C65.6221641,24.5976801 65.621669,23.3318451 64.8406204,22.5507966 C64.0541265,21.7643027 62.7944109,21.768579 62.0148044,22.5481855 L43.627417,40.9355729 Z" id="Combined-Shape" fill="#FFFFFF"></path>
            </g>
        </g>
    </g>
</svg>