<svg xmlns="http://www.w3.org/2000/svg" width="29" height="25"><path fill-rule="evenodd" fill="#fff" d="M25.572 20.006h-6.158c-.178 0-.35.073-.47.2l-4.188 4.448c-.51.478-1.33.468-1.808-.03l-3.852-4.4c-.122-.14-.3-.218-.486-.218H2.558c-1.413 0-2.56-1.12-2.56-2.5V2.508c0-1.38 1.147-2.5 2.56-2.5h23.014c1.413 0 2.558 1.12 2.558 2.5v14.998c0 1.38-1.145 2.5-2.558 2.5zm1.28-17.498c0-.69-.573-1.25-1.28-1.25H2.558c-.708 0-1.28.56-1.28 1.25v14.998c0 .69.572 1.25 1.28 1.25h6.374c.373 0 .73.16.972.44l3.49 4.002c.244.25.65.256.903.016l3.794-4.052c.244-.26.586-.406.945-.406h6.537c.707 0 1.28-.56 1.28-1.25V2.508zm-5.995 9.06c-.703 0-1.278-.562-1.278-1.25 0-.686.574-1.25 1.277-1.25s1.28.564 1.28 1.25c0 .688-.577 1.25-1.28 1.25zm-6.792 0c-.703 0-1.28-.562-1.28-1.25 0-.686.577-1.25 1.28-1.25.703 0 1.278.564 1.278 1.25 0 .688-.575 1.25-1.278 1.25zm-6.553 0c-.704 0-1.278-.562-1.278-1.25 0-.686.574-1.25 1.278-1.25.703 0 1.278.564 1.278 1.25 0 .688-.575 1.25-1.278 1.25z"/></svg>