<svg width="301" height="2399" viewBox="0 0 301 2399" xmlns="http://www.w3.org/2000/svg"><title>share 2</title><g fill="none" fill-rule="evenodd"><path d="M221.406 2275.984c-11.583-2.276-5.948-8.55-5.948-8.55s11.306-18.814-2.238-32.497c-16.82-16.946-57.704 2.157-57.704 2.157-15.603 4.89-11.46-2.252-9.234-14.308 0-14.25-4.852-38.372-46.41-24.113-41.536 14.308-77.196 64.496-77.196 64.496-24.812 33.362-21.502 59.137-21.502 59.137 6.2 56.885 66.19 72.517 112.843 76.204 49.097 3.867 115.348-17.043 135.442-60.065 20.056-43.093-16.447-60.136-28.052-62.46h-.002zM117.64 2382.456c-48.734 2.275-88.126-22.355-88.126-55.116 0-32.82 39.392-59.137 88.126-61.376 48.77-2.278 88.26 18.006 88.26 50.73-.036 32.76-39.5 63.51-88.26 65.76v.002zm-9.727-94.897c-49.01 5.793-43.354 52.054-43.354 52.054s-.507 14.634 13.134 22.102c28.678 15.67 58.21 6.19 73.127-13.226 14.94-19.44 6.19-66.665-42.906-60.93zm-12.39 64.965c-9.136 1.084-16.53-4.263-16.53-11.972 0-7.683 6.55-15.73 15.725-16.68 10.51-1.024 17.36 5.094 17.36 12.802 0 7.685-7.416 14.79-16.554 15.85zm28.907-24.823c-3.094 2.336-6.897 2.01-8.537-.77-1.696-2.748-1.07-7.12 2.048-9.42 3.637-2.747 7.416-1.927 9.053.77 1.662 2.82.47 7.023-2.564 9.42zm120.85-71.76c3.924 0 7.318-2.94 7.862-6.78.047-.29.12-.53.12-.868 5.984-54.247-44.123-44.913-44.123-44.913-4.443 0-8.008 3.627-8.008 8.156 0 4.443 3.564 8.07 8.007 8.07 35.984-7.986 28.037 28.256 28.037 28.256 0 4.468 3.636 8.08 8.103 8.08zm-5.828-94.67c-17.324-4.08-35.14-.564-40.14.423-.383 0-.745.35-1.095.447-.19.037-.262.215-.262.215-4.94 1.388-8.55 6-8.55 11.396 0 6.455 5.213 11.79 11.703 11.79 0 0 6.297-.843 10.57-2.552 4.227-1.71 40.102-1.287 57.945 28.86 9.716 22.016 4.263 36.746 3.6 39.12 0 0-2.324 5.708-2.324 11.344 0 6.48 5.2 10.563 11.654 10.563 5.392 0 9.92-.724 11.23-9.913h.06c19.107-64.22-23.392-94.427-54.392-101.69z" fill="#EF5350"/><path d="M146.455 1619.022c-1.882.034-3.763 1.522-5.188 4.463l-33.65 70.36c-2.29 3.892-3.352 4.784-8.917 5.31l-71.55 8.056c-6.568.665-8.04 4.944-3.26 9.532l56.134 51.79c2.656 2.482 2.69 3.547 1.938 6.957l-14.39 76c-.855 4.577.718 7.232 3.706 7.255h.08c1.777-.113 3.394-.712 4.747-1.665l63.736-36.908c4.505-2.826 8.655-2.918 13.07-.17l64.377 37.3c5.725 3.32 9.43.7 8.234-5.81l-11.014-60.648c6.59-2.242 12.988-4.99 16.807-8.09l-1.55.31c-22.805 5.48-54.128 8.718-83.17 8.718-10.72 0-21.14-.378-31.13-1.087l-.034.023c-8.78-.606-17.207-1.487-25.2-2.586-2.976-.47.26-2.404.26-2.404l77.21-55.06s2.03-1.26.033-1.534c-31.745-4.978-66.91-6.237-99.956-6.237l-2.28.012c22.325-5.127 50.444-8.17 81.003-8.17 18.016 0 35.19 1.063 50.833 2.974-.012.023 8.837 1.236 13.067 1.922 3.273.504.228 2.403.228 2.403l-77.32 53.78s-1.8 1.064.136 1.35c23.786 3.376 53.114 4.577 79.465 4.92l-1.187-6.52c-.592-3.777 0-5.082 2.828-7.794l54.506-51.15c4.835-4.52 3.42-8.764-3.16-9.428l-73.865-7.345c-5.644-.527-6.91-1.408-8.665-6.02l-31.608-70.35c-1.424-2.95-3.307-4.44-5.188-4.473h-.115v.012z" fill="#FDE45A"/><path d="M257.792 1239.11c-5.02-29.2-26.097-48.332-26.097-48.332 3.012-26.513-8.028-31.215-8.028-31.215-2.323-82.032-72.754-80.596-74.234-80.557-1.48-.04-71.92-1.475-74.234 80.556 0 0-11.042 4.702-8.03 31.216 0 0-21.077 19.13-26.095 48.332 0 0-2.68 49.34 24.087 6.042 0 0 6.023 16.444 17.062 31.216 0 0-19.74 6.716-18.066 24.166 0 0-.672 19.464 42.154 18.125 0 0 30.108-2.348 39.14-15.104h7.96c9.034 12.756 39.142 15.103 39.142 15.103 42.816 1.338 42.154-18.126 42.154-18.126 1.666-17.45-18.066-24.166-18.066-24.166 11.04-14.772 17.062-31.216 17.062-31.216 26.758 43.3 24.088-6.04 24.088-6.04z" fill="#4FC3F7"/><path d="M149.178 540.236c-4.56 0-9.04.275-13.446.793-10.8 1.22-21.15 3.916-30.88 7.83 0 0 80.234 79.348 82.37 82.298v-84.616c-2.39-.814-4.833-1.546-7.296-2.228-9.8-2.635-20.11-4.078-30.748-4.078z" fill="#F95452"/><path d="M232.985 574.707c-3.216-3.215-6.586-6.186-10.066-8.94-8.51-6.755-17.732-12.186-27.37-16.275 0 0 .59 112.77 0 116.37l59.89-59.838c-1.132-2.275-2.334-4.514-3.605-6.713-5.08-8.787-11.327-17.097-18.85-24.603z" fill="#6467F0"/><path d="M259.274 615.413s-79.378 80.17-82.35 82.306h84.682c.814-2.39 1.548-4.833 2.22-7.294 2.644-9.815 4.09-20.088 4.09-30.727 0-4.55-.284-9.034-.804-13.438-1.222-10.792-3.908-21.136-7.838-30.85z" fill="#5283F0"/><path d="M141.513 706.63l59.89 59.837c2.28-1.127 4.523-2.328 6.726-3.6 8.794-5.056 17.1-11.31 24.632-18.838 3.205-3.205 6.167-6.582 8.936-10.06 6.747-8.505 12.194-17.71 16.285-27.352 0 0-112.856.59-116.47.01z" fill="#00B1FE"/><path d="M110.785 687.832v84.626c2.41.815 4.843 1.555 7.298 2.218 9.812 2.645 20.103 4.088 30.75 4.088 4.538 0 9.027-.285 13.424-.793 10.6-1.207 20.99-3.846 30.88-7.842.01 0-80.214-79.325-82.35-82.295h-.002z" fill="#65D020"/><path d="M102.358 652.537l-59.87 59.838c1.122 2.29 2.333 4.527 3.605 6.723 5.06 8.81 11.318 17.11 18.85 24.625 3.207 3.215 6.586 6.175 10.067 8.932 8.518 6.764 17.71 12.185 27.38 16.273 0 0-.612-112.78-.032-116.39z" fill="#9AD122"/><path d="M34.164 628.624c-2.636 9.806-4.08 20.09-4.08 30.73 0 4.535.284 9.03.803 13.426 1.222 10.8 3.898 21.145 7.847 30.85 0 0 79.37-80.172 82.342-82.298H36.383c-.814 2.38-1.547 4.83-2.22 7.293z" fill="#FFC817"/><path d="M89.3 556.59c-8.814 5.066-17.12 11.322-24.632 18.828-3.237 3.225-6.188 6.6-8.947 10.06-6.757 8.504-12.192 17.72-16.293 27.37 0 0 112.875-.6 116.48-.02l-59.88-59.837c-2.28 1.14-4.53 2.33-6.728 3.6z" fill="#FF7612"/><g fill="#66BB6A"><path d="M203.412 72.42c3.448 0 6.863.246 10.25.614C204.458 31.134 158.642 0 106.355 0 47.892 0 0 38.968 0 88.447c0 28.57 15.933 52.017 42.564 70.208l-10.64 31.276L69.1 171.705c13.312 2.585 23.976 5.223 37.255 5.223 3.34 0 6.655-.154 9.936-.407-2.092-6.952-3.28-14.24-3.28-21.784-.014-45.433 39.89-82.316 90.402-82.316zM146.23 44.223c8.01 0 13.304 5.15 13.304 12.983 0 7.794-5.308 13.016-13.305 13.016-7.964 0-15.973-5.222-15.973-13.016 0-7.82 8.01-12.982 15.972-12.982zm-74.442 26c-7.97 0-16.027-5.222-16.027-13.016 0-7.82 8.045-12.983 16.027-12.983 7.97 0 13.28 5.15 13.28 12.983 0 7.794-5.296 13.017-13.28 13.017zm228.7 83.257c0-41.565-42.55-75.464-90.348-75.464-50.606 0-90.46 33.885-90.46 75.464 0 41.647 39.854 75.464 90.46 75.464 10.59 0 21.274-2.61 31.91-5.22l29.166 15.613-7.996-25.987c21.362-15.646 37.267-36.422 37.267-59.87zm-119.68-13.015c-5.293 0-10.63-5.15-10.63-10.403 0-5.178 5.337-10.386 10.632-10.386 8.042 0 13.31 5.222 13.31 10.385.014 5.255-5.254 10.404-13.31 10.404zm58.518 0c-5.27 0-10.565-5.15-10.565-10.403 0-5.178 5.31-10.386 10.565-10.386 7.962 0 13.305 5.222 13.305 10.385 0 5.255-5.342 10.404-13.305 10.404z"/></g></g></svg>