<?xml version="1.0" standalone="no"?><!DOCTYPE svg PUBLIC "-//W3C//DTD SVG 1.1//EN" "http://www.w3.org/Graphics/SVG/1.1/DTD/svg11.dtd"><svg t="1564825069645" class="icon" viewBox="0 0 1024 1024" version="1.1" xmlns="http://www.w3.org/2000/svg" p-id="3223" xmlns:xlink="http://www.w3.org/1999/xlink" width="200" height="200"><defs><style type="text/css"></style></defs><path d="M981.333333 460.8l-418.133333 0L563.2 42.666667c0-25.6-17.066667-42.666667-42.666667-42.666667l-17.066667 0c-25.6 0-42.666667 17.066667-42.666667 42.666667l0 418.133333L42.666667 460.8c-25.6 0-42.666667 17.066667-42.666667 42.666667l0 17.066667c0 25.6 17.066667 42.666667 42.666667 42.666667l418.133333 0L460.8 981.333333c0 25.6 17.066667 42.666667 42.666667 42.666667l17.066667 0c25.6 0 42.666667-17.066667 42.666667-42.666667l0-418.133333L981.333333 563.2c25.6 0 42.666667-17.066667 42.666667-42.666667l0-17.066667C1024 477.866667 1006.933333 460.8 981.333333 460.8z" p-id="3224" fill="#CCCCCC"></path></svg>