<?xml version="1.0" standalone="no"?><!DOCTYPE svg PUBLIC "-//W3C//DTD SVG 1.1//EN" "http://www.w3.org/Graphics/SVG/1.1/DTD/svg11.dtd"><svg t="1564822800399" class="icon" viewBox="0 0 1024 1024" version="1.1" xmlns="http://www.w3.org/2000/svg" p-id="2325" xmlns:xlink="http://www.w3.org/1999/xlink" width="200" height="200"><defs><style type="text/css"></style></defs><path d="M541.190891 1009.293248C544.52832 1005.885275 548.383707 1001.898704 552.713978 997.36109 565.025302 984.460186 578.71838 969.688892 593.450024 953.266626 635.514509 906.374618 677.575463 855.548152 716.899743 802.505285 772.694379 727.246301 818.336558 653.733231 850.310552 583.915306 882.791737 512.990107 900.380982 447.547911 900.380982 388.380982 900.380982 173.884097 726.496814 0 512 0 297.503186 0 123.619018 173.884097 123.619018 388.380982 123.619018 453.914994 148.112442 529.89656 192.638909 615.024269 222.801105 672.689965 261.563999 733.327147 306.917011 795.635831 346.163792 849.555204 388.144069 901.753449 430.125229 950.301866 444.824743 967.300737 458.485691 982.641645 470.765062 996.079009 475.081033 1000.802039 478.922121 1004.956003 482.24525 1008.510078 484.268362 1010.673642 485.687365 1012.175194 486.459184 1012.983838 500.133902 1027.31116 522.916683 1027.589594 536.93759 1013.600746 537.722472 1012.817576 539.154539 1011.372534 541.190891 1009.293248ZM537.540816 964.228432C536.933529 963.592087 535.680295 962.265819 533.824363 960.28098 530.682538 956.921044 527.024342 952.964783 522.892674 948.443587 511.036286 935.468873 497.80291 920.608075 483.539265 904.113199 442.768795 856.965196 401.997442 806.270003 364.009369 754.079684 320.553597 694.377636 283.599147 636.569422 255.210969 582.295634 215.493894 506.362491 194.233742 440.41104 194.233742 388.380982 194.233742 212.883532 336.502462 70.614724 512 70.614724 687.497538 70.614724 829.766258 212.883532 829.766258 388.380982 829.766258 436.039636 814.709257 492.060238 786.108175 554.512959 756.432867 619.311431 713.270146 688.831132 660.173876 760.450492 622.263303 811.586462 581.572627 860.7571 540.885482 906.113538 526.654144 921.978212 513.452721 936.219066 501.628286 948.609655 497.511094 952.924056 493.867022 956.692128 490.739495 959.885697 488.896804 961.767332 487.65681 963.018643 487.06241 963.611524L537.540816 964.228432ZM670.883129 388.380982C670.883129 300.632248 599.748681 229.497853 512 229.497853 424.251319 229.497853 353.116871 300.632248 353.116871 388.380982 353.116871 476.129715 424.251319 547.26411 512 547.26411 599.748681 547.26411 670.883129 476.129715 670.883129 388.380982ZM423.731595 388.380982C423.731595 339.631683 463.250772 300.112577 512 300.112577 560.749228 300.112577 600.268405 339.631683 600.268405 388.380982 600.268405 437.13028 560.749228 476.649387 512 476.649387 463.250772 476.649387 423.731595 437.13028 423.731595 388.380982Z" p-id="2326" fill="#FF4444"></path></svg>