<?xml version="1.0" standalone="no"?><!DOCTYPE svg PUBLIC "-//W3C//DTD SVG 1.1//EN" "http://www.w3.org/Graphics/SVG/1.1/DTD/svg11.dtd"><svg t="1565338709679" class="icon" viewBox="0 0 1024 1024" version="1.1" xmlns="http://www.w3.org/2000/svg" p-id="780" xmlns:xlink="http://www.w3.org/1999/xlink" width="200" height="200"><defs><style type="text/css"></style></defs><path d="M350.72 80.448l0.768-1.6s83.2-16.64 152.32-16.896c72.32-0.32 152.32 16.896 152.32 16.896l0.832 1.6c9.408 3.648 16.192 12.8 16.192 23.488 0 2.176-0.832 4.288-1.28 6.208l0.96 2.496-7.104 8.896-0.384 0.576-60.16 75.072H402.112l-60.16-74.944c-0.384-0.448-0.64-1.024-1.152-1.472l-6.4-8.128 1.152-2.368c-0.576-2.048-1.28-4.096-1.28-6.272a25.472 25.472 0 0 1 16.384-23.552zM614.912 251.84H409.152C247.68 307.84 114.304 485.76 114.304 656.256c0 205.696 117.504 305.792 397.696 305.792 280.32 0 397.632-100.032 397.696-305.792 0-170.496-133.12-348.352-294.784-404.48z m7.68 397.568v0.256c18.56 0 33.6 15.104 33.6 33.664a33.92 33.92 0 0 1-33.6 33.92H554.24v33.92h-0.512a42.304 42.304 0 1 1-82.88 0h-0.64v-33.92h-67.84a33.92 33.92 0 0 1 0-67.712h0.128v-0.128h67.648v-33.6H402.56V615.68h-0.128a33.792 33.792 0 1 1 0-67.584h0.128v-0.128h61.696A18.56 18.56 0 0 1 467.2 542.08L391.168 466.24c-9.472-9.344-6.336-27.648 6.848-40.896 13.184-13.056 31.488-16.192 40.832-6.72l74.24 73.984 68.736-73.088c10.688-11.648 32.384-8.832 45.632 4.48 13.12 13.44 19.904 25.472 6.848 40.128L554.24 545.92c0 0.768 0.128 1.344 0 2.176h68.288v0.128a33.792 33.792 0 1 1 0 67.584H554.24v33.664h68.352z" p-id="781" fill="#FF4444"></path></svg>