<?xml version="1.0" standalone="no"?><!DOCTYPE svg PUBLIC "-//W3C//DTD SVG 1.1//EN" "http://www.w3.org/Graphics/SVG/1.1/DTD/svg11.dtd"><svg t="1565338732097" class="icon" viewBox="0 0 1024 1024" version="1.1" xmlns="http://www.w3.org/2000/svg" p-id="940" xmlns:xlink="http://www.w3.org/1999/xlink" width="200" height="200"><defs><style type="text/css"></style></defs><path d="M650.07 598.295s61.497-104.981 85.496-212.983l-127.494-0.757h-71.994V322.31h244.5v-45h-244.5V160.311h-126V277.31h-244.5v45h244.5v62.245H209.092v45h395.246c-3.462 16.862-19.542 86.841-56.264 132.742 0 0-164.991-56.997-280.485-58.497 0 0-196.49-13.5-226.489 169.49 0 0-13.499 173.99 212.99 188.99 0 0 169.492 21 334.483-170.99l394.479 172.398V700.29L650.07 598.295zM246.59 799.284c-167.992 0-167.992-121.494-167.992-121.494C95.097 557.796 254.09 566.796 254.09 566.796c142.493 13.499 242.988 77.996 242.988 77.996C386.083 796.284 246.59 799.284 246.59 799.284z" p-id="941" fill="#00AAEE"></path></svg>